<svg width="119" height="54" viewBox="0 0 119 54" fill="none" xmlns="http://www.w3.org/2000/svg">
<path fill-rule="evenodd" clip-rule="evenodd" d="M23.1429 10.0915V20.1831H24.9552H26.7675V16.7232V13.2634L28.8269 13.2696L30.8863 13.2762L33.3287 16.7295L35.771 20.1831H38.0522H40.3334L39.2002 18.6179C38.5771 17.7569 37.3839 16.1044 36.5493 14.9455L35.0316 12.8383L36.3634 12.1793C39.0133 10.8682 40.2978 7.22942 39.1613 4.25396C37.9237 1.01291 36.261 0.353232 28.8269 0.152891L23.1429 0V10.0915ZM43.5724 10.1331V20.1831H51.1511H58.7298V18.5355V16.888H52.9634H47.197V14.4167V11.9453H52.3044H57.4118V10.2978V8.65026H52.3044H47.197V6.17895V3.70763H52.7987H58.4003V1.89533V0.0830358H50.9864H43.5724V10.1331ZM65.4712 0.682742C62.9353 1.87227 61.6971 4.1953 62.1409 6.93088C62.5426 9.40648 64.3078 10.7426 68.7271 11.9164C72.963 13.0416 74.1001 14.4193 72.2881 16.2313C71.4897 17.0297 71.0238 17.2175 69.8428 17.2175C68.0207 17.2175 66.5362 16.7206 64.7694 15.5199L63.395 14.5857L62.3419 15.9153C61.3491 17.1687 61.3204 17.2801 61.8391 17.8531C62.7877 18.9013 66.2775 20.2565 68.4853 20.4338C72.323 20.7416 75.1123 19.5349 76.2251 17.0854C76.9994 15.3801 77.0037 13.7926 76.2389 12.1085C75.5262 10.54 73.5244 9.32378 70.2771 8.4865C66.5174 7.51708 65.3408 6.53976 65.9632 4.90243C66.6588 3.07267 69.426 2.83674 72.4285 4.35116C73.4895 4.88628 74.3746 5.29422 74.3953 5.25731C74.4161 5.22041 74.8418 4.6408 75.3417 3.96893C75.8415 3.29706 76.1529 2.58994 76.034 2.39751C75.915 2.20507 75.0497 1.65347 74.111 1.17173C71.7991 -0.014828 67.4793 -0.259324 65.4712 0.682742ZM78.8299 1.89533V3.70763H81.9602H85.0905V11.9453V20.1831H87.0676H89.0446V11.9453V3.70763H92.175H95.3053V1.89533V0.0830358H87.0676H78.8299V1.89533ZM34.6503 4.56073C36.0606 5.74729 36.082 7.62417 34.7011 9.00514C33.758 9.9482 33.6654 9.9683 30.2527 9.9683H26.7675V6.83796V3.70763H30.2019C33.4163 3.70763 33.7017 3.76233 34.6503 4.56073Z" fill="white"/>
<path fill-rule="evenodd" clip-rule="evenodd" d="M39.4051 26.602C39.1873 27.0264 36.7221 32.7279 33.9275 39.2725C31.1324 45.8172 28.6612 51.5288 28.4361 51.9647C28.0594 52.6941 28.2438 52.7474 30.7215 52.6258L33.4161 52.494L34.6091 49.6293L35.802 46.7647H41.9299H48.0583L49.2309 49.6293L50.4035 52.494L53.0916 52.6249C55.5637 52.7456 55.7542 52.6901 55.461 51.9352C55.2861 51.4839 52.7071 45.4258 49.7302 38.4726L44.3175 25.8311L42.0594 25.8307C40.3486 25.8307 39.7056 26.0176 39.4051 26.602ZM59.6894 39.2144V52.7144H62.2874H64.8855V48.5276V44.3408L68.4578 44.3381C73.9622 44.3346 76.9777 43.1072 79.0055 40.0451C81.0458 36.9632 80.5379 31.2912 78 28.8166C75.7466 26.62 73.9042 26.1568 66.5093 25.9268L59.6894 25.7144V39.2144ZM84.8039 39.2725V52.7144H87.4019H90V39.2725V25.8307H87.4019H84.8039V39.2725ZM73.0499 31.3066C75.1703 32.4225 75.948 35.6785 74.5715 37.6785C73.5275 39.1954 71.3542 39.9336 67.9304 39.9336H64.8855V35.3061V30.6786H68.3712C70.541 30.6786 72.3072 30.9157 73.0499 31.3066ZM44.0694 37.2549C45.0394 39.5392 45.8331 41.5717 45.8331 41.7723C45.8331 42.2271 38.0415 42.261 38.0324 41.8066C38.0155 40.9825 41.752 32.5243 42.0126 32.7962C42.1737 32.9646 43.0995 34.9711 44.0694 37.2549Z" fill="white"/>
<path fill-rule="evenodd" clip-rule="evenodd" d="M5.94557 1.82802C4.04693 3.49434 3.95557 3.99289 3.83731 13.3282C3.72045 22.5551 3.81582 22.0799 1.52103 24.865C-0.57458 27.4084 -0.543258 27.959 1.85474 30.7088C3.77687 32.9132 3.83731 33.2559 3.83731 41.9651C3.83731 49.4555 3.91682 50.2658 4.80389 51.8244C5.65764 53.3243 6.75454 53.9915 8.38071 53.9998C10.0149 54.008 10.3253 53.6667 10.2259 51.969L10.1621 50.8767L8.73068 50.6938C7.1527 50.4918 6.34011 49.8397 6.03692 48.5316C5.93151 48.0762 5.84457 44.5623 5.84397 40.7229C5.84337 36.6699 5.7504 33.1956 5.6225 32.4387C5.47452 31.5649 5.02456 30.5295 4.25695 29.2969L3.11186 27.4582L3.99532 26.3655C4.56174 25.6647 5.05146 24.664 5.35987 23.5763C5.82349 21.9429 5.84136 21.6005 5.84317 14.3507L5.84517 6.82139L6.52785 5.70106C7.16374 4.65751 7.29967 4.58073 8.51122 4.58073C10.0051 4.58073 10.3231 4.20278 10.2259 2.54272L10.1621 1.4504L8.35501 1.37494C7.01074 1.3186 6.39372 1.43491 5.94557 1.82802ZM108.287 1.68106C108.154 1.89853 108.046 2.46199 108.046 2.93319C108.046 4.22288 108.407 4.58073 109.711 4.58073C110.93 4.58073 111.906 5.21932 112.201 6.21081C112.285 6.49221 112.401 10.2812 112.459 14.6307C112.563 22.5304 112.564 22.5406 113.117 24.0844C113.421 24.9345 114.029 26.0466 114.468 26.5557C114.906 27.0651 115.264 27.5557 115.262 27.6463C115.26 27.737 114.908 28.2088 114.48 28.6948C114.051 29.1809 113.445 30.293 113.132 31.1662L112.563 32.7537L112.463 40.7377L112.363 48.7217L111.816 49.6183C111.353 50.3775 111.06 50.5357 109.908 50.6513C108.352 50.8072 108.046 51.0882 108.046 52.3595C108.046 53.8113 108.442 54.0888 110.333 53.9589C111.831 53.8558 112.126 53.7279 112.88 52.8538C114.453 51.0293 114.557 50.3548 114.672 41.2142L114.772 33.1989L115.583 31.9879C116.028 31.3217 116.819 30.2979 117.339 29.7127C118.107 28.8497 118.286 28.4648 118.286 27.6767C118.286 26.8499 118.054 26.4183 116.734 24.7865C115.881 23.7318 115.069 22.4978 114.93 22.0447C114.751 21.4621 114.676 19.1961 114.673 14.3012C114.669 6.93046 114.535 5.40714 113.737 3.67162C112.947 1.95488 111.928 1.28564 110.102 1.28564C109.145 1.28564 108.433 1.44084 108.287 1.68106Z" fill="#747474"/>
</svg>
