<svg width="32" height="23" viewBox="0 0 32 23" fill="none" xmlns="http://www.w3.org/2000/svg">
<path fill-rule="evenodd" clip-rule="evenodd" d="M10.3923 0.0548017C8.00414 0.310337 5.06003 1.73522 4.03422 3.13215C3.20407 4.26277 2.00062 7.51438 1.20636 10.7735C0.666127 12.99 0.412984 14.4938 0.150047 17.0486L0 18.5065L0.931158 19.4171C2.04959 20.5108 2.63483 20.9646 3.49915 21.4083C4.41984 21.8808 6.47811 22.5227 7.82733 22.7582C8.13729 22.8122 8.786 22.3906 9.38021 21.7487C9.8237 21.2697 10.3176 20.583 10.3176 20.4453C10.3176 20.4004 10.1578 20.2922 9.96245 20.2048C9.7671 20.1175 9.34814 19.9295 9.0313 19.7873C8.3725 19.4914 7.33106 18.7951 6.72901 18.2479L6.31782 17.8742L7.3271 18.3496C10.4453 19.8185 13.3188 20.4162 16.7762 20.315C19.404 20.2381 21.3309 19.8499 23.7514 18.91C24.376 18.6675 24.9816 18.4704 25.0972 18.4721C25.3057 18.475 25.3045 18.4777 24.9473 18.8063C24.6993 19.0346 24.1704 19.3418 23.2466 19.794C22.5091 20.155 21.9073 20.4839 21.9091 20.525C21.9109 20.5661 22.2231 21.0035 22.6029 21.4969C23.4323 22.5745 23.7154 22.7663 24.3728 22.6962C25.0512 22.6238 26.9944 22.0921 27.7835 21.7628C29.6374 20.9893 31.3111 19.6706 31.8218 18.5812C32.038 18.1202 32.0561 17.2955 31.8836 15.7777C31.5583 12.9161 30.9852 10.2542 30.1128 7.55386C29.2252 4.80621 28.421 3.18276 27.5853 2.45174C27.1303 2.05371 25.6418 1.26191 24.5924 0.859687C22.8709 0.199915 20.5279 -0.20664 20.266 0.108929C20.1766 0.216661 20.1768 0.249556 20.2673 0.337775C20.4647 0.530286 21.4908 1.03911 22.5411 1.46526C23.1168 1.69889 23.8796 2.03636 24.2362 2.21527C25.4516 2.82495 25.0999 2.85097 23.3615 2.28001C20.9257 1.48006 18.6459 1.12427 15.9621 1.12539C13.2316 1.12651 10.9339 1.47834 8.34147 2.2925C7.27417 2.62765 7.02805 2.67505 7.02805 2.54549C7.02805 2.43439 8.41047 1.79496 9.71462 1.30287C12.1033 0.401547 12.5299 0.00800095 11.1026 0.0223552C10.8559 0.0248224 10.5363 0.0394755 10.3923 0.0548017ZM12.3251 10.5932C12.8221 10.8844 13.2236 11.33 13.4837 11.8787C13.6937 12.3219 13.7192 12.4491 13.7192 13.0488C13.7192 13.6234 13.6898 13.7845 13.5177 14.1518C13.2663 14.6883 12.6845 15.3114 12.1687 15.5968C11.8266 15.7861 11.6975 15.8144 11.1773 15.8147C10.4161 15.8151 10.0128 15.6304 9.36257 14.9836C8.76021 14.3844 8.50138 13.8453 8.46154 13.1071C8.43559 12.6266 8.45772 12.5131 8.66265 12.0752C8.9359 11.4913 9.59066 10.8029 10.1106 10.5529C10.8114 10.2159 11.7089 10.2323 12.3251 10.5932ZM22.0748 10.495C22.5837 10.744 23.1237 11.3112 23.3874 11.8737C23.563 12.2483 23.5878 12.394 23.5878 13.0504C23.5878 13.7446 23.5699 13.8359 23.3448 14.2932C22.4438 16.1234 20.0187 16.3883 18.9331 14.775C18.3458 13.9022 18.2304 12.6828 18.6601 11.8889C18.7799 11.6677 19.0598 11.2895 19.2823 11.0486C19.8943 10.3858 20.2387 10.2382 21.0937 10.2718C21.5297 10.289 21.7617 10.3418 22.0748 10.495Z" fill="#00FF00"/>
</svg>
