<svg width="33" height="30" viewBox="0 0 33 30" fill="none" xmlns="http://www.w3.org/2000/svg">
<path d="M10.5239 23.8994C10.569 23.8828 10.6228 23.8848 10.6435 23.9039C10.6642 23.923 10.6274 23.9366 10.5616 23.9341C10.4889 23.9313 10.4742 23.9177 10.5239 23.8994V23.8994ZM15.9522 7.46933C15.9972 7.45273 16.051 7.45477 16.0718 7.47386C16.0925 7.49295 16.0557 7.50653 15.9899 7.50403C15.9172 7.50128 15.9024 7.48766 15.9522 7.46933V7.46933ZM17.1377 7.46933C17.1827 7.45273 17.2365 7.45477 17.2573 7.47386C17.278 7.49295 17.2411 7.50653 17.1754 7.50403C17.1027 7.50128 17.0879 7.48766 17.1377 7.46933V7.46933Z" fill="#00FF00"/>
<path d="M20.5469 26.294C20.5469 25.1407 20.5552 24.6689 20.5654 25.2456C20.5755 25.8222 20.5755 26.7658 20.5654 27.3424C20.5552 27.919 20.5469 27.4472 20.5469 26.294ZM12.6104 25.8057C12.6111 25.6793 12.6239 25.6343 12.6388 25.7058C12.6537 25.7773 12.6531 25.8807 12.6375 25.9356C12.6219 25.9905 12.6097 25.9321 12.6104 25.8057ZM11.0816 25.6815C11.1245 25.6655 11.1947 25.6655 11.2376 25.6815C11.2805 25.6974 11.2454 25.7104 11.1596 25.7104C11.0738 25.7104 11.0387 25.6974 11.0816 25.6815ZM15.7026 0.345776C15.7477 0.329181 15.8015 0.331222 15.8222 0.350312C15.843 0.369402 15.8061 0.382978 15.7403 0.380484C15.6677 0.377727 15.6529 0.364115 15.7026 0.345776ZM17.3873 0.345776C17.4323 0.329181 17.4861 0.331222 17.5069 0.350312C17.5276 0.369402 17.4907 0.382978 17.425 0.380484C17.3523 0.377727 17.3375 0.364115 17.3873 0.345776Z" fill="#00FF00"/>
<path d="M12.6156 26.4089C12.6156 26.1719 12.6266 26.075 12.6401 26.1935C12.6536 26.312 12.6536 26.5058 12.6401 26.6243C12.6266 26.7428 12.6156 26.6459 12.6156 26.4089ZM11.3312 25.6815C11.3741 25.6655 11.4443 25.6655 11.4872 25.6815C11.5301 25.6974 11.495 25.7105 11.4092 25.7105C11.3234 25.7105 11.2883 25.6974 11.3312 25.6815ZM20.5236 24.1349C20.5266 24.068 20.5414 24.0544 20.5613 24.1002C20.5793 24.1417 20.5771 24.1912 20.5564 24.2103C20.5356 24.2294 20.5209 24.1955 20.5236 24.1349H20.5236ZM19.608 21.6838L19.4892 21.5546L19.6296 21.664C19.7068 21.7242 19.7699 21.7823 19.7699 21.7933C19.7699 21.8392 19.7197 21.8053 19.608 21.6838ZM0.619951 15.9773C0.622946 15.9104 0.637729 15.8968 0.657647 15.9426C0.67567 15.9841 0.673454 16.0336 0.652721 16.0527C0.631987 16.0718 0.617241 16.0379 0.61995 15.9773H0.619951ZM7.67046 8.56655C7.67345 8.49963 7.68823 8.48601 7.70815 8.53184C7.72618 8.57331 7.72396 8.62286 7.70323 8.64195C7.6825 8.66104 7.66775 8.62711 7.67046 8.56655H7.67046ZM15.6402 7.46931C15.6853 7.45272 15.7391 7.45476 15.7598 7.47384C15.7806 7.49293 15.7437 7.50651 15.6779 7.50402C15.6053 7.50126 15.5905 7.48765 15.6402 7.46931V7.46931ZM17.4497 7.46931C17.4947 7.45272 17.5485 7.45476 17.5693 7.47384C17.59 7.49293 17.5531 7.50651 17.4874 7.50402C17.4147 7.50126 17.3999 7.48765 17.4497 7.46931V7.46931ZM24.5626 6.3778C24.6076 6.36121 24.6614 6.36325 24.6822 6.38233C24.7029 6.40142 24.666 6.415 24.6003 6.41251C24.5276 6.40975 24.5128 6.39614 24.5626 6.3778V6.3778ZM15.8898 0.345776C15.9349 0.329181 15.9887 0.331222 16.0094 0.350312C16.0301 0.369402 15.9933 0.382978 15.9275 0.380484C15.8548 0.377727 15.84 0.364115 15.8898 0.345776ZM17.2001 0.345776C17.2451 0.329181 17.2989 0.331222 17.3197 0.350312C17.3404 0.369402 17.3036 0.382978 17.2378 0.380484C17.1651 0.377727 17.1503 0.364115 17.2001 0.345776Z" fill="#00FF00"/>
<path d="M12.6146 27.1557C12.6146 26.9504 12.6259 26.8663 12.6398 26.969C12.6536 27.0717 12.6536 27.2397 12.6398 27.3424C12.6259 27.4451 12.6146 27.3611 12.6146 27.1557ZM7.6777 8.80112C7.67897 8.70633 7.69295 8.67451 7.70877 8.7304C7.72459 8.7863 7.72355 8.86385 7.70646 8.90275C7.68937 8.94164 7.67643 8.89591 7.6777 8.80112H7.6777ZM25.4527 8.56654C25.4557 8.49962 25.4705 8.48601 25.4904 8.53183C25.5084 8.5733 25.5062 8.62285 25.4855 8.64194C25.4647 8.66103 25.45 8.6271 25.4527 8.56654H25.4527ZM8.52735 6.37779C8.57239 6.3612 8.6262 6.36323 8.64694 6.38232C8.66767 6.40141 8.63082 6.41499 8.56505 6.4125C8.49236 6.40974 8.47758 6.39613 8.52735 6.37779V6.37779Z" fill="#00FF00"/>
<path d="M12.6133 27.7876C12.6133 27.6139 12.625 27.5428 12.6393 27.6297C12.6536 27.7165 12.6536 27.8587 12.6393 27.9456C12.625 28.0325 12.6133 27.9614 12.6133 27.7876ZM32.5032 15.6901C32.5062 15.6232 32.521 15.6095 32.5409 15.6554C32.5589 15.6968 32.5567 15.7464 32.536 15.7655C32.5153 15.7846 32.5005 15.7506 32.5032 15.6901ZM0.619951 14.2539C0.622946 14.187 0.637729 14.1733 0.657647 14.2192C0.67567 14.2606 0.673454 14.3102 0.652721 14.3293C0.631987 14.3484 0.617241 14.3144 0.61995 14.2539H0.619951ZM32.5032 14.2539C32.5062 14.187 32.521 14.1733 32.5409 14.2192C32.5589 14.2606 32.5567 14.3102 32.536 14.3293C32.5153 14.3484 32.5005 14.3144 32.5032 14.2539ZM25.4623 8.82985C25.4623 8.71926 25.4751 8.67402 25.4908 8.72931C25.5065 8.78461 25.5065 8.87509 25.4908 8.93038C25.4751 8.98568 25.4623 8.94044 25.4623 8.82985ZM5.26337 4.63616C5.32548 4.57297 5.39034 4.52126 5.4075 4.52126C5.42465 4.52126 5.38787 4.57297 5.32576 4.63616C5.26365 4.69935 5.19879 4.75105 5.18163 4.75105C5.16447 4.75105 5.20125 4.69935 5.26337 4.63616ZM27.8732 4.65052C27.7956 4.55941 27.7978 4.55737 27.8967 4.62883C28.0007 4.70388 28.0337 4.75106 27.9824 4.75106C27.9694 4.75106 27.9203 4.70582 27.8732 4.65052H27.8732ZM16.2018 0.345776C16.2468 0.329181 16.3006 0.331222 16.3214 0.350312C16.3421 0.369402 16.3053 0.382978 16.2395 0.380484C16.1668 0.377727 16.152 0.364115 16.2018 0.345776ZM16.8881 0.345776C16.9332 0.329181 16.987 0.331222 17.0077 0.350312C17.0284 0.369402 16.9916 0.382978 16.9258 0.380484C16.8531 0.377727 16.8384 0.364115 16.8881 0.345776Z" fill="#00FF00"/>
<path d="M11.7718 29.0123C11.8169 28.9957 11.8707 28.9977 11.8914 29.0168C11.9121 29.0359 11.8753 29.0495 11.8095 29.047C11.7368 29.0442 11.7221 29.0306 11.7718 29.0123V29.0123ZM21.3181 29.0123C21.3631 28.9957 21.4169 28.9977 21.4377 29.0168C21.4584 29.0359 21.4216 29.0495 21.3558 29.047C21.2831 29.0442 21.2683 29.0306 21.3181 29.0123V29.0123ZM12.6045 28.1898C12.6045 28.1108 12.6187 28.0785 12.636 28.118C12.6533 28.1575 12.6533 28.2221 12.636 28.2616C12.6187 28.3011 12.6045 28.2688 12.6045 28.1898ZM8.65911 23.0913L8.50785 22.9333L8.67943 23.0726C8.8398 23.2028 8.87963 23.2493 8.83069 23.2493C8.81952 23.2493 8.7423 23.1782 8.65911 23.0913ZM7.47039 21.6551C7.39278 21.564 7.39499 21.562 7.49395 21.6334C7.554 21.6768 7.60314 21.722 7.60314 21.7339C7.60314 21.7812 7.5519 21.7508 7.47039 21.6551H7.47039ZM0.619951 15.5752C0.622946 15.5083 0.637729 15.4947 0.657647 15.5405C0.67567 15.582 0.673454 15.6315 0.652721 15.6506C0.631987 15.6697 0.617241 15.6358 0.61995 15.5752H0.619951ZM0.619951 14.4262C0.622946 14.3593 0.637729 14.3457 0.657647 14.3915C0.67567 14.433 0.673454 14.4825 0.652721 14.5016C0.631987 14.5207 0.617241 14.4868 0.61995 14.4262H0.619951ZM32.5032 14.4262C32.5062 14.3593 32.521 14.3457 32.5409 14.3915C32.5589 14.433 32.5567 14.4825 32.536 14.5016C32.5153 14.5207 32.5005 14.4868 32.5032 14.4262ZM6.36019 14.3113C6.36318 14.2444 6.37796 14.2308 6.39788 14.2766C6.41591 14.3181 6.41369 14.3677 6.39295 14.3867C6.37222 14.4058 6.35748 14.3719 6.36019 14.3113ZM26.763 14.3113C26.766 14.2444 26.7808 14.2308 26.8007 14.2766C26.8187 14.3181 26.8165 14.3677 26.7957 14.3867C26.775 14.4058 26.7603 14.3719 26.763 14.3113H26.763ZM16.389 0.345776C16.434 0.329181 16.4878 0.331222 16.5086 0.350312C16.5293 0.369402 16.4924 0.382978 16.4267 0.380484C16.354 0.377727 16.3392 0.364115 16.389 0.345776ZM16.7009 0.345776C16.746 0.329181 16.7998 0.331222 16.8205 0.350312C16.8413 0.369402 16.8044 0.382978 16.7386 0.380484C16.666 0.377727 16.6512 0.364115 16.7009 0.345776Z" fill="#00FF00"/>
<path d="M0.619951 14.5986C0.622946 14.5316 0.637729 14.518 0.657647 14.5639C0.67567 14.6053 0.673454 14.6549 0.652721 14.674C0.631987 14.6931 0.617241 14.6591 0.61995 14.5986H0.619951ZM32.5032 14.5986C32.5062 14.5316 32.521 14.518 32.5409 14.5639C32.5589 14.6053 32.5567 14.6549 32.536 14.674C32.5153 14.6931 32.5005 14.6591 32.5032 14.5986ZM6.36019 14.139C6.36318 14.0721 6.37796 14.0585 6.39788 14.1043C6.41591 14.1458 6.41369 14.1953 6.39295 14.2144C6.37222 14.2335 6.35748 14.1996 6.36019 14.139Z" fill="#00FF00"/>
<path d="M10.8788 28.7682C7.75659 27.6629 5.22302 25.8003 3.34652 23.2307C1.94518 21.3119 1.11963 19.3283 0.773047 17.0474C0.595655 15.88 0.625088 13.9112 0.838222 12.6877C1.82315 7.03408 6.35305 2.39479 12.3713 0.876113C13.8752 0.496627 14.5961 0.418365 16.5879 0.418365C18.5796 0.418365 19.3006 0.496627 20.8044 0.876113C26.8227 2.39479 31.3526 7.03408 32.3375 12.6877C32.5628 13.9811 32.5795 15.7783 32.379 17.1602C31.6804 21.9759 28.0737 26.4123 23.2328 28.4107C21.5386 29.1101 20.9633 29.1637 20.6743 28.6492C20.5961 28.5099 20.5811 28.1089 20.5811 26.1612C20.5811 23.6052 20.5336 23.1204 20.22 22.4757C20.1274 22.2853 19.9342 21.9966 19.7908 21.8341L19.5299 21.5387L19.9379 21.4985C22.2612 21.2694 24.3404 20.321 25.4007 19.0066C26.3813 17.7909 26.9362 15.6027 26.7484 13.6917C26.6388 12.5757 26.1943 11.519 25.5017 10.7276L25.1806 10.3607L25.3294 9.83964C25.4465 9.42954 25.4774 9.17792 25.4745 8.65794C25.4707 7.95298 25.4149 7.64034 25.1604 6.8968C24.988 6.39287 24.9509 6.36238 24.5094 6.36081C23.8405 6.35844 22.3807 6.90691 21.0374 7.66534L20.5889 7.91851L19.8831 7.77462C18.6324 7.51967 18.1912 7.48026 16.5879 7.48026C14.9845 7.48026 14.5433 7.51967 13.2927 7.77462L12.5868 7.91851L12.1384 7.66138C10.785 6.88539 9.00197 6.27806 8.38828 6.38406C8.17421 6.42104 8.16467 6.4345 7.98668 6.9511C7.62572 7.99873 7.58597 8.91891 7.86009 9.88122L7.99629 10.3594L7.67458 10.7269C7.25609 11.2051 6.83837 11.9558 6.63987 12.5865C6.23994 13.8572 6.33487 15.8376 6.86567 17.2972C7.46389 18.9421 8.36084 19.9005 10.0085 20.6555C10.9444 21.0843 12.0291 21.3684 13.2342 21.5003C13.6129 21.5417 13.6578 21.5779 13.489 21.7059C13.2054 21.9211 12.8489 22.6004 12.7158 23.179C12.6362 23.5251 12.558 23.5797 11.9056 23.7441C11.6306 23.8133 11.2651 23.8467 10.754 23.8492C10.0426 23.8527 9.98513 23.8441 9.59975 23.6756C9.0446 23.4329 8.55273 22.9994 8.02968 22.2919C7.31086 21.3196 6.40998 20.7794 5.50725 20.7794C4.60389 20.7794 4.64481 21.1889 5.60654 21.7732C6.15864 22.1086 6.58548 22.6377 7.10983 23.6365C7.3462 24.0867 7.64458 24.5621 7.77389 24.6946C8.08903 25.0175 8.66468 25.3533 9.1273 25.4842C9.92134 25.7088 11.4381 25.7761 12.3607 25.6277L12.5947 25.59V27.0969V28.6038L12.3825 28.7992C12.193 28.9737 12.1349 28.9942 11.8366 28.9918C11.6045 28.9899 11.3127 28.9218 10.8788 28.7682Z" fill="#00FF00"/>
</svg>
