<svg width="48" height="43" viewBox="0 0 48 43" fill="none" xmlns="http://www.w3.org/2000/svg">
<path d="M6.41477 42.5751C6.27405 42.4857 6.11501 42.3338 6.06135 42.2376C6.0077 42.1413 5.94212 42.0537 5.91561 42.0429C5.88909 42.0321 5.86742 41.1134 5.86742 40.0014V28.9891C5.86742 24.8421 5.89146 21.8404 5.92471 21.8404C5.95624 21.8404 6.00033 21.7733 6.02273 21.6913C6.11591 21.3502 6.5588 21.1319 7.15777 21.1319C7.41132 21.1319 7.60236 21.1573 7.60236 21.1909C7.60236 21.2234 7.64108 21.25 7.68842 21.25C7.73575 21.25 7.86449 21.3409 7.97449 21.452C8.38051 21.8619 8.37344 21.7435 8.37344 28.1325V38.4905V40.557H13.1849C17.067 40.557 18.0097 40.5421 18.0659 40.4798C18.1147 40.4259 18.1358 39.0184 18.1362 35.7943C18.1369 33.0373 18.1611 31.1292 18.1975 31.0447C18.2988 30.8094 18.6058 30.552 18.9137 30.4444C19.1801 30.3513 19.615 30.3426 23.9879 30.3426C28.3439 30.3426 28.7967 30.3516 29.0621 30.4435C29.4483 30.5774 29.7551 30.8722 29.8336 31.1849C29.8715 31.3355 29.897 33.2104 29.898 35.9025C29.8987 38.3597 29.9171 40.4122 29.9386 40.4636C29.9736 40.5476 30.4606 40.557 34.7862 40.557C37.6483 40.557 39.6096 40.5349 39.6314 40.5026C39.6515 40.4727 39.6682 36.3535 39.6685 31.3488C39.6692 25.2753 39.6912 22.1542 39.7358 21.9631C39.8559 21.4485 40.2917 21.1319 40.88 21.1319C41.4183 21.1319 41.7553 21.3089 41.9959 21.7179C42.1018 21.8978 42.1084 22.5004 42.1084 31.971C42.1084 37.5051 42.0875 42.0331 42.0619 42.0331C41.9882 42.6933 41.7188 42.7102 39.8659 42.7416H34.0847C28.7009 42.7416 28.2892 42.7345 28.0955 42.6382C27.8067 42.4948 27.6608 42.3569 27.6131 42.1822C27.5907 42.1001 27.5466 42.0331 27.5151 42.0331C27.482 42.0331 27.4578 40.0486 27.4578 37.3391V32.6452H23.9879H20.518V37.3049C20.518 41.6304 20.5099 41.9781 20.4056 42.1556C20.2638 42.3966 20.1426 42.508 19.8803 42.6382C19.686 42.7347 19.243 42.7414 13.1714 42.7396L6.67063 42.7376L6.41477 42.575V42.5751ZM40.9518 42.7378C19.2588 -10.1725 30.1053 16.2826 40.9518 42.7378V42.7378ZM0.795854 21.4646C0.854263 21.1802 0.967573 21.0738 12.1483 10.8023C18.4259 5.03513 23.5388 0.383575 23.6604 0.328977C23.9355 0.205468 24.4206 0.20253 24.683 0.322772C24.7934 0.373392 29.8846 5.00936 35.9966 10.6249C46.3041 20.095 47.1173 20.8565 47.2165 21.1311C47.697 21.893 46.7212 22.3291 46.4133 22.4899C46.1885 22.5711 45.6553 22.5592 45.4632 22.4467L24.1699 3.00651C24.1464 3.00617 21.8691 5.08053 19.1093 7.61634C15.3846 11.0388 14.0489 12.2312 13.9258 12.2436C13.7164 12.2648 13.5941 12.3776 13.5536 12.5871C13.5304 12.7073 12.6878 13.5135 10.4067 15.5983L1.85707 22.9032C1.0909 22.6683 0.684178 22.0896 0.795854 21.4646Z" fill="#00FF00"/>
</svg>
