<svg width="33" height="30" viewBox="0 0 33 30" fill="none" xmlns="http://www.w3.org/2000/svg">
<path d="M3.21545 29.5283C3.08568 29.5039 2.85387 29.4597 2.70033 29.43C2.33087 29.3586 1.72681 29.0312 1.429 28.7411C1.0097 28.3325 0.791272 27.9225 0.681639 27.3382C0.598959 26.8976 0.598959 3.12147 0.681639 2.68083C0.791272 2.09655 1.0097 1.68656 1.429 1.27799C1.72752 0.987107 2.33182 0.660019 2.70033 0.589856C2.85387 0.560623 3.10518 0.513797 3.25878 0.485801C3.65077 0.41436 29.522 0.41436 29.914 0.485801C30.0676 0.513797 30.3189 0.560623 30.4724 0.589856C30.8409 0.660019 31.4452 0.987107 31.7437 1.27799C32.163 1.68656 32.3815 2.09655 32.4911 2.68083C32.5738 3.12147 32.5738 26.8976 32.4911 27.3382C32.3815 27.9225 32.163 28.3325 31.7437 28.7411C31.4452 29.0319 30.8409 29.359 30.4724 29.4292C30.3189 29.4584 30.0676 29.5052 29.914 29.5332C29.5549 29.5987 3.56419 29.5939 3.21545 29.5283V29.5283ZM10.0651 26.2932C10.1903 26.2279 10.3343 26.0967 10.406 25.9826L10.5301 25.7852V18.7607V11.7362L10.3995 11.5282C10.1536 11.1369 10.1668 11.1389 7.83957 11.1389C5.80525 11.1389 5.79984 11.1392 5.62336 11.2475C5.52605 11.3073 5.39278 11.4287 5.32721 11.5174L5.20798 11.6787V18.7215C5.20798 26.3165 5.19429 25.9398 5.47883 26.1785C5.76062 26.415 5.88038 26.4265 7.9346 26.4161C9.84237 26.4064 9.84917 26.406 10.0651 26.2932ZM17.6922 26.321C17.7958 26.274 17.9373 26.1664 18.0068 26.082L18.1332 25.9285L18.1615 21.8668L18.1898 17.805L18.3497 17.3032C18.8579 15.7081 19.7188 15.0598 21.2531 15.1169C21.8663 15.1397 22.1853 15.2222 22.5679 15.457C23.0901 15.7775 23.411 16.2633 23.6454 17.0882L23.7947 17.6138L23.8117 21.786L23.8287 25.9581L24.0325 26.1439C24.1523 26.2531 24.3244 26.3513 24.4501 26.3821C24.5926 26.4171 25.323 26.4299 26.642 26.4205C28.8499 26.4048 28.8126 26.4102 29.1025 26.0636L29.2494 25.8879L29.2462 21.6553C29.2427 17.0178 29.2189 16.4963 28.9569 15.3349C28.6739 14.0795 28.2736 13.2639 27.571 12.511C26.784 11.6676 25.5705 11.1044 24.2138 10.9528C23.1627 10.8353 21.6952 10.9183 20.9024 11.14C19.8664 11.4298 18.9742 11.9764 18.3993 12.6734L18.1594 12.9642V12.3335C18.1594 11.6103 18.1039 11.4443 17.7989 11.2554L17.6107 11.1389H15.5273C13.202 11.1389 13.2105 11.1378 12.9677 11.4649L12.8373 11.6406L12.8222 18.6412C12.814 22.4916 12.8202 25.7086 12.8363 25.7902C12.8523 25.8717 12.9416 26.018 13.0348 26.1152C13.3286 26.4215 13.3923 26.4291 15.5639 26.4171C17.3075 26.4075 17.523 26.3977 17.6922 26.321H17.6922ZM8.85221 9.74457C10.3185 9.30083 11.2904 8.11463 11.2904 6.76875C11.2904 4.71872 9.1741 3.22355 6.99176 3.73179C6.36834 3.87698 5.94242 4.10658 5.43449 4.57127C4.93534 5.02792 4.68542 5.43137 4.52578 6.03823C4.23992 7.12487 4.61034 8.24319 5.51775 9.03302C5.96591 9.42311 6.74841 9.77539 7.33017 9.84898C7.775 9.90525 8.48137 9.85681 8.85221 9.74457Z" fill="#00FF00"/>
</svg>
