<svg width="139" height="76" viewBox="0 0 139 76" fill="none" xmlns="http://www.w3.org/2000/svg">
<path fill-rule="evenodd" clip-rule="evenodd" d="M96.7335 9.73137C92.4035 15.0797 86.3956 22.7083 83.3825 26.6842C80.3694 30.6602 77.6014 34.2932 77.2316 34.7577L76.5584 35.6026L70.3658 27.2507C64.3839 19.1832 64.1292 18.8992 62.8758 18.8992C62.1621 18.8992 61.5781 18.9822 61.5781 19.0838C61.5781 19.1854 64.5239 23.2258 68.1249 28.0633C71.7255 32.9004 74.7344 37.0298 74.8116 37.2393C74.8885 37.4487 71.7706 41.8373 67.8824 46.9913C63.9942 52.1454 60.8132 56.4413 60.8132 56.5373C60.8132 56.6337 61.4048 56.7123 62.1277 56.7123C63.4029 56.7123 63.6411 56.4479 70.0128 47.9737L76.5829 39.2352L79.046 42.5057C80.4007 44.3044 83.3373 48.2366 85.5714 51.2442C89.6122 56.6837 89.6413 56.7123 91.1287 56.7123H92.6234L91.3065 54.9514C90.5825 53.9827 87.3835 49.7076 84.1983 45.451C81.0131 41.1944 78.4069 37.5785 78.4069 37.4153C78.4069 37.2526 84.2243 28.9741 91.3349 19.0193C98.445 9.06445 104.393 0.711092 104.553 0.456039C104.712 0.201357 104.789 -0.00401819 104.724 5.96933e-05C104.659 0.00413757 101.063 4.38341 96.7335 9.73137ZM0.255106 19.1465C0.114739 19.2821 0 27.7901 0 38.053V56.7123H1.33483H2.66965L2.7691 39.4865L2.86855 22.2612L14.3427 38.4671C20.6535 47.3806 29.4087 59.3443 33.7987 65.0534C38.1888 70.7624 42.0422 75.6837 42.3615 75.9895C42.6809 76.2954 38.3284 69.8727 32.6892 61.7169C27.05 53.5612 18.0684 40.5905 12.7298 32.8937C3.25255 19.2295 2.994 18.8992 1.76665 18.8992C1.07552 18.8992 0.395091 19.0104 0.255106 19.1465ZM32.8926 37.8009V56.7123H46.088H59.2833V55.7855V54.8587H47.2713H35.2598L35.2269 46.5176L35.1944 38.1764H46.4739H57.7534V37.2552V36.334L46.566 36.2357L35.3787 36.1375L35.3133 28.6305L35.2475 21.1235H47.2908H59.3341L59.2129 20.104L59.092 19.0845L45.9923 18.987L32.8926 18.8895V37.8009ZM93.7058 20.0113V21.1235H100.59H107.475V38.9179V56.7123H108.622H109.77V38.9179V21.1235H116.654H123.539V20.0113V18.8992H108.622H93.7058V20.0113ZM134.357 46.1468C133.605 46.4582 133.035 47.0121 132.89 47.5719C132.76 48.0753 132.843 48.8308 133.074 49.2505C133.309 49.6764 134.21 50.2095 135.115 50.4575C136.005 50.7022 136.973 51.1122 137.264 51.3688C137.556 51.6253 137.691 52.0987 137.563 52.4201C137.415 52.7945 136.863 53.0051 136.028 53.0051C135.311 53.0051 134.51 52.7549 134.248 52.449C133.986 52.1432 133.535 51.8929 133.245 51.8929C132.955 51.8929 132.718 52.1172 132.718 52.3916C132.718 52.6659 133.019 53.1437 133.387 53.454C133.756 53.764 134.51 54.1217 135.063 54.2489C135.617 54.376 136.583 54.3067 137.21 54.095C137.837 53.883 138.541 53.3032 138.774 52.806C139.031 52.2607 139.072 51.5712 138.88 51.0662C138.669 50.5135 137.861 49.9712 136.5 49.4673C134.98 48.9053 134.439 48.5153 134.439 47.9823C134.439 47.4455 134.744 47.2301 135.619 47.1474C136.337 47.0796 136.992 47.2608 137.292 47.6108C137.562 47.927 138.021 48.1858 138.311 48.1858C138.6 48.1858 138.838 47.9615 138.838 47.6872C138.838 47.4128 138.537 46.935 138.168 46.6247C137.8 46.3148 137.069 45.9659 136.543 45.8495C136.017 45.7331 135.033 45.8669 134.357 46.1468ZM129.658 48.8968C129.658 50.5113 129.554 52.0961 129.426 52.4186C129.298 52.7411 128.777 53.0051 128.267 53.0051C127.757 53.0051 127.24 52.7549 127.119 52.449C126.998 52.1432 126.659 51.8929 126.366 51.8929C126.073 51.8929 125.834 52.1113 125.834 52.3782C125.834 52.6451 126.049 53.1334 126.312 53.4633C126.575 53.7932 127.134 54.0946 127.555 54.1332C127.975 54.1714 128.608 54.1832 128.962 54.1599C129.315 54.1365 129.874 53.8551 130.205 53.5348C130.666 53.0874 130.806 52.1402 130.806 49.457C130.806 46.5969 130.701 45.9615 130.232 45.9615C129.77 45.9615 129.658 46.5346 129.658 48.8968ZM122.575 53.017C122.426 53.2498 122.485 53.6149 122.705 53.8281C122.925 54.0412 123.389 54.1102 123.736 53.9808C124.083 53.8518 124.296 53.5378 124.208 53.2828C124.12 53.0281 123.778 52.7689 123.447 52.7067C123.116 52.6444 122.724 52.7838 122.575 53.017Z" fill="white"/>
</svg>
