<svg width="120" height="61" viewBox="0 0 120 61" fill="none" xmlns="http://www.w3.org/2000/svg">
<path fill-rule="evenodd" clip-rule="evenodd" d="M56.3032 0.0749943C56.09 0.13403 55.4385 0.18367 54.8553 0.185493C54.2721 0.187175 52.8725 0.248175 51.745 0.320952C50.6175 0.39373 48.8043 0.547419 47.7157 0.662405C46.627 0.777532 45.0683 0.95548 44.2519 1.05799C43.4354 1.16035 42.6719 1.28305 42.5553 1.33045C42.4387 1.37784 41.9024 1.45216 41.3636 1.49564C40.8248 1.53911 40.319 1.63909 40.2396 1.71775C40.1602 1.79656 39.7066 1.86093 39.2316 1.86093C38.6911 1.86093 38.2653 1.93791 38.0935 2.06678C37.9387 2.18289 37.5072 2.2746 37.1038 2.27712C36.7005 2.27964 36.269 2.37135 36.1142 2.48746C35.9633 2.60076 35.5767 2.69542 35.255 2.6978C34.9335 2.70033 34.4882 2.79652 34.2654 2.91179C34.0427 3.02692 33.6574 3.12157 33.4093 3.12213C33.1612 3.12255 32.92 3.18425 32.8733 3.25913C32.8267 3.33401 32.4715 3.43694 32.0842 3.48798C31.6969 3.53888 31.3481 3.63172 31.3091 3.69426C31.2702 3.7568 30.9527 3.85033 30.6036 3.90235C30.2546 3.95424 29.9342 4.05254 29.8918 4.12069C29.8492 4.18898 29.6396 4.24479 29.4256 4.24479C29.2119 4.24479 28.9134 4.33748 28.7624 4.45064C28.6116 4.56395 28.3177 4.6586 28.1093 4.66098C27.901 4.66351 27.6352 4.76012 27.5186 4.87581C27.4019 4.9915 27.1551 5.08615 26.97 5.08615C26.7848 5.08615 26.51 5.17884 26.359 5.292C26.2081 5.40531 25.8856 5.49996 25.6423 5.50235C25.3992 5.50487 25.1211 5.60149 25.0242 5.71717C24.9274 5.83286 24.7309 5.92751 24.5875 5.92751C24.4441 5.92751 24.118 6.01684 23.8626 6.12622C23.6073 6.23545 23.1661 6.42476 22.8822 6.5469C22.5983 6.6689 22.2994 6.76888 22.2181 6.76888C22.1368 6.76888 21.7872 6.91808 21.4412 7.10051C21.0953 7.28295 20.6465 7.47352 20.4441 7.524C20.2416 7.57434 20.0759 7.67755 20.0759 7.75313C20.0759 7.82885 19.9246 7.89069 19.7397 7.89069C19.5549 7.89069 19.3245 7.98535 19.2276 8.10103C19.1308 8.21672 18.936 8.31138 18.7946 8.31138C18.6531 8.31138 18.501 8.36985 18.4564 8.44151C18.4117 8.51302 17.8831 8.81269 17.2817 9.10744C16.6801 9.4022 16.1562 9.68224 16.1173 9.72977C16.0784 9.77717 15.9035 9.86032 15.7285 9.91459C15.5536 9.96872 15.4104 10.0718 15.4104 10.1437C15.4104 10.2157 15.2812 10.2746 15.1232 10.2746C14.9652 10.2746 14.7993 10.3692 14.7547 10.4849C14.7099 10.6006 14.5508 10.6952 14.4012 10.6952C14.2515 10.6952 14.0924 10.7899 14.0478 10.9056C14.003 11.0213 13.8537 11.1159 13.716 11.1159C13.5784 11.1159 13.3865 11.2106 13.2897 11.3263C13.1928 11.4419 13.0314 11.5366 12.9307 11.5366C12.8301 11.5366 12.7266 11.5867 12.7006 11.6478C12.6747 11.7089 12.415 11.9033 12.1233 12.0798C11.8318 12.2564 11.5931 12.4587 11.5931 12.5297C11.5931 12.6005 11.5227 12.6584 11.4368 12.6584C11.3508 12.6584 11.0167 12.8626 10.6945 13.1121C10.3723 13.3615 10.045 13.6357 9.96727 13.7213C9.88951 13.807 9.41236 14.1837 8.90692 14.5584C8.40149 14.933 7.35981 15.8737 6.59211 16.6484C5.82442 17.4232 4.94193 18.3961 4.63103 18.8103C4.32028 19.2246 3.96217 19.6717 3.83549 19.8041C3.70881 19.9366 3.52375 20.1656 3.42436 20.3131C3.32483 20.4605 3.20621 20.6917 3.1604 20.8266C3.11474 20.9615 3.02411 21.072 2.95908 21.072C2.89418 21.072 2.51515 21.7503 2.11688 22.5795C1.71861 23.4087 1.33392 24.1964 1.26195 24.3304C1.18999 24.4643 1.13104 24.6889 1.13104 24.8294C1.13104 24.9701 1.03759 25.2075 0.923492 25.3572C0.809257 25.5069 0.713826 25.8583 0.711422 26.1382C0.708878 26.4179 0.611467 26.7253 0.494829 26.8214C0.339453 26.9492 0.282759 27.2889 0.282759 28.0922C0.282759 28.6954 0.219139 29.2277 0.14138 29.2753C0.0636209 29.323 0 29.8909 0 30.5374C0 31.1838 0.0636209 31.7517 0.14138 31.7994C0.219139 31.8471 0.282476 32.2768 0.282052 32.7542C0.281628 33.2317 0.373385 33.9063 0.485781 34.2534C0.598178 34.6005 0.825516 35.3261 0.990789 35.866C1.15606 36.4059 1.61569 37.5102 2.01183 38.32C2.40812 39.1298 3.00828 40.1504 3.34547 40.588C3.68266 41.0257 3.95863 41.4375 3.95863 41.5034C3.95863 41.5692 4.0699 41.7216 4.20605 41.8421C4.3422 41.9625 4.71685 42.371 5.03877 42.7498C5.36055 43.1284 6.0922 43.9138 6.66464 44.4949C7.23695 45.076 7.97283 45.786 8.29984 46.0724C8.62699 46.3589 8.92912 46.5934 8.97139 46.5934C9.01366 46.5934 9.1672 46.7039 9.31268 46.8388C9.45802 46.9738 9.77033 47.2578 10.0069 47.4698C10.2432 47.6818 10.4993 47.8554 10.5756 47.8554C10.6521 47.8554 10.7512 47.9501 10.796 48.0658C10.8407 48.1815 10.9456 48.2761 11.0292 48.2761C11.1126 48.2761 11.2578 48.3394 11.3517 48.4165C11.4455 48.4938 11.9203 48.8408 12.4065 49.1877C12.8927 49.5348 13.3857 49.8186 13.5022 49.8186C13.6185 49.8186 13.7138 49.8805 13.7138 49.9562C13.7138 50.0318 13.8729 50.1333 14.0673 50.1817C14.2617 50.23 14.4207 50.3217 14.4207 50.3853C14.4207 50.4488 14.5639 50.5451 14.7388 50.5993C14.9139 50.6535 15.0888 50.7436 15.1276 50.7994C15.1665 50.8553 15.6437 51.1339 16.188 51.4185C16.7323 51.703 17.289 51.9959 17.4251 52.0691C17.5611 52.1425 17.7839 52.266 17.9199 52.3435C18.0559 52.4212 18.2627 52.5204 18.3794 52.5641C18.496 52.6077 18.6869 52.7024 18.8035 52.7745C18.9201 52.8464 19.111 52.9433 19.2276 52.9894C19.3443 53.0357 19.8532 53.2661 20.3587 53.5014C20.8641 53.7367 21.4685 54.0073 21.7018 54.1028C21.9351 54.1982 22.285 54.3386 22.4794 54.4146C22.6738 54.4906 23.1191 54.6614 23.469 54.794C23.819 54.9268 24.3142 55.1236 24.5695 55.2315C24.8249 55.3394 25.1635 55.4277 25.3218 55.4277C25.4803 55.4277 25.7054 55.5224 25.822 55.638C25.9387 55.7537 26.2151 55.8484 26.4363 55.8484C26.6576 55.8484 26.8612 55.9156 26.8887 55.9977C26.9163 56.0798 27.208 56.1827 27.5368 56.2264C27.8655 56.2702 28.1346 56.358 28.1346 56.4214C28.1346 56.4849 28.3732 56.5757 28.6647 56.6234C28.9564 56.671 29.3222 56.7636 29.4777 56.8294C29.6332 56.895 30.2005 57.0799 30.7385 57.24C31.2766 57.4001 31.8294 57.5311 31.9672 57.5311C32.1051 57.5311 32.2572 57.5942 32.3053 57.6713C32.3533 57.7485 32.5957 57.8138 32.8438 57.8165C33.0919 57.8193 33.454 57.9117 33.6484 58.0219C33.8428 58.1321 34.2563 58.2265 34.5673 58.2317C34.8784 58.2369 35.2564 58.3338 35.4073 58.4471C35.5583 58.5602 35.9718 58.6549 36.3263 58.6574C36.6808 58.6598 37.0944 58.7544 37.2452 58.8678C37.4108 58.992 37.8343 59.0736 38.3126 59.0736C38.7488 59.0736 39.1681 59.1356 39.2446 59.2114C39.321 59.2872 39.8904 59.4167 40.51 59.4993C41.1295 59.5819 42.2089 59.7154 42.9087 59.7959C43.6086 59.8764 44.3084 59.9948 44.4639 60.0588C44.6194 60.1229 45.3802 60.2162 46.1544 60.2661C46.9286 60.316 47.6602 60.4067 47.7803 60.4677C47.9003 60.5289 48.9837 60.6226 50.1878 60.6761C51.392 60.7297 52.6693 60.8356 53.0263 60.9116C53.4287 60.9971 56.2776 61.0228 60.5214 60.979C64.2868 60.9402 67.6855 60.8755 68.0743 60.8351C68.4631 60.7949 69.5129 60.7018 70.4071 60.6282C71.3013 60.5545 72.8282 60.3968 73.8002 60.2776C74.7722 60.1585 76.1401 59.9952 76.8399 59.9148C77.5397 59.8343 78.2227 59.7069 78.3577 59.6314C78.4928 59.556 78.9699 59.4939 79.4181 59.4935C79.8663 59.4929 80.4152 59.3982 80.6379 59.2831C80.8607 59.1678 81.3379 59.0732 81.6983 59.0728C82.0588 59.0722 82.5359 58.9776 82.7586 58.8624C82.9814 58.7472 83.4304 58.6529 83.7566 58.6529C84.0828 58.6529 84.4731 58.5602 84.6241 58.4471C84.775 58.3338 85.1563 58.2391 85.4711 58.2367C85.7861 58.2342 86.1094 58.167 86.1899 58.0872C86.2703 58.0075 86.6488 57.8852 87.0311 57.8153C87.4134 57.7457 88.0124 57.6141 88.3623 57.5233C88.7122 57.4322 89.0961 57.3103 89.2153 57.2521C89.3345 57.1937 89.6504 57.0985 89.9175 57.0403C90.1846 56.9821 90.5006 56.8828 90.6197 56.8197C90.7389 56.7566 91.0751 56.6672 91.3667 56.6209C91.6583 56.5746 91.8968 56.4766 91.8968 56.403C91.8968 56.3294 92.0755 56.2691 92.294 56.2691C92.5124 56.2691 92.8145 56.1764 92.9655 56.0632C93.1164 55.9499 93.4007 55.8553 93.5972 55.8529C93.7939 55.8503 94.0801 55.7628 94.2334 55.6585C94.3868 55.554 94.6714 55.4342 94.8658 55.3922C95.0602 55.3503 95.4419 55.2366 95.7141 55.1397C95.9862 55.0426 96.3998 54.8852 96.633 54.7897C96.8663 54.694 97.248 54.5395 97.4813 54.4461C97.7146 54.3527 98.0963 54.1927 98.3296 54.0904C98.5629 53.9881 98.897 53.8643 99.0718 53.8152C99.2467 53.7661 99.3899 53.6673 99.3899 53.5954C99.3899 53.5234 99.4915 53.4645 99.6156 53.4645C99.7396 53.4645 100.042 53.3609 100.287 53.2343C100.532 53.1076 100.828 52.9495 100.945 52.8829C101.062 52.8161 101.253 52.7259 101.369 52.6822C101.486 52.6386 101.677 52.5439 101.793 52.4719C101.91 52.3999 102.101 52.3037 102.218 52.2581C102.334 52.2126 102.651 52.0711 102.922 51.9435C103.193 51.816 103.5 51.6329 103.604 51.5364C103.708 51.4401 103.878 51.3611 103.983 51.3611C104.088 51.3611 104.194 51.3137 104.22 51.2559C104.246 51.198 104.57 51.0044 104.939 50.8254C105.308 50.6465 105.611 50.4414 105.611 50.3697C105.611 50.2979 105.725 50.2393 105.865 50.2393C106.005 50.2393 106.191 50.1689 106.277 50.0828C106.364 49.9967 106.584 49.8401 106.765 49.7345C106.947 49.629 107.207 49.5027 107.343 49.4539C107.479 49.4051 107.59 49.3135 107.59 49.2503C107.59 49.1872 107.844 48.9935 108.155 48.8202C108.467 48.6467 108.721 48.4535 108.721 48.3905C108.721 48.3276 108.818 48.2761 108.937 48.2761C109.057 48.2761 109.191 48.1815 109.235 48.0658C109.28 47.9501 109.384 47.8554 109.467 47.8554C109.549 47.8554 109.717 47.7626 109.84 47.649C109.963 47.5356 110.273 47.2516 110.528 47.018C110.784 46.7845 111.023 46.5934 111.06 46.5934C111.097 46.5934 111.333 46.4198 111.585 46.2078C111.837 45.9956 112.584 45.2803 113.245 44.618C113.906 43.9557 114.701 43.1101 115.012 42.739C115.323 42.3678 115.689 41.9474 115.825 41.8046C115.961 41.662 116.073 41.4961 116.073 41.4363C116.073 41.3762 116.264 41.12 116.497 40.8667C116.73 40.6134 116.921 40.3468 116.921 40.2745C116.921 40.2021 116.97 40.1429 117.029 40.1429C117.088 40.1429 117.293 39.8116 117.484 39.4067C117.674 39.0019 117.864 38.639 117.906 38.6003C117.947 38.5617 118.093 38.32 118.229 38.0631C118.365 37.8063 118.478 37.4908 118.481 37.3621C118.483 37.2334 118.579 37.0055 118.693 36.8559C118.807 36.7061 118.9 36.4457 118.9 36.277C118.9 36.1085 118.996 35.892 119.112 35.7959C119.229 35.6998 119.324 35.4155 119.324 35.1638C119.324 34.912 119.42 34.5254 119.536 34.3044C119.652 34.0836 119.747 33.5437 119.748 33.1048C119.748 32.6659 119.806 32.2719 119.875 32.2292C119.945 32.1866 120.001 31.4414 120 30.5733C119.999 29.7051 119.951 28.9318 119.892 28.8547C119.833 28.7775 119.752 28.2748 119.71 27.7375C119.669 27.2 119.565 26.7372 119.48 26.709C119.394 26.6809 119.324 26.4227 119.324 26.1354C119.324 25.848 119.231 25.4905 119.117 25.3407C119.003 25.1911 118.907 24.9028 118.905 24.7C118.902 24.4974 118.805 24.2531 118.688 24.157C118.572 24.061 118.476 23.9007 118.476 23.8007C118.476 23.7007 118.37 23.4087 118.24 23.1518C118.109 22.8949 117.914 22.5087 117.804 22.2937C117.695 22.0786 117.527 21.7631 117.431 21.5926C117.335 21.4219 117.134 21.0777 116.983 20.8275C116.832 20.5773 116.661 20.3723 116.603 20.3718C116.545 20.3713 116.497 20.2763 116.497 20.1606C116.497 20.0449 116.444 19.9502 116.38 19.9502C116.315 19.9502 116.065 19.6773 115.823 19.3439C115.582 19.0104 115.205 18.5269 114.986 18.2695C114.767 18.0119 114.044 17.2593 113.378 16.597C112.713 15.9347 111.896 15.1563 111.564 14.867C111.232 14.5778 110.912 14.3411 110.854 14.3411C110.795 14.3411 110.562 14.1537 110.335 13.9244C110.108 13.6951 109.879 13.5058 109.825 13.5037C109.772 13.5016 109.519 13.3105 109.264 13.0791C109.008 12.8477 108.718 12.6584 108.619 12.6584C108.52 12.6584 108.438 12.6005 108.438 12.5297C108.438 12.4587 108.2 12.2564 107.908 12.0798C107.617 11.9033 107.357 11.7089 107.331 11.6478C107.305 11.5867 107.201 11.5366 107.101 11.5366C107 11.5366 106.839 11.4419 106.742 11.3263C106.645 11.2106 106.453 11.1159 106.315 11.1159C106.178 11.1159 106.028 11.0213 105.984 10.9056C105.939 10.7899 105.804 10.6952 105.685 10.6952C105.565 10.6952 105.203 10.5059 104.881 10.2746C104.559 10.0432 104.215 9.85387 104.117 9.85387C104.018 9.85387 103.917 9.80648 103.89 9.7487C103.865 9.69093 103.334 9.39547 102.712 9.09216C102.09 8.78885 101.56 8.48918 101.534 8.42608C101.508 8.36298 101.34 8.31138 101.161 8.31138C100.981 8.31138 100.797 8.21672 100.753 8.10103C100.708 7.98535 100.51 7.89069 100.313 7.89069C100.117 7.89069 99.9555 7.8318 99.9555 7.75986C99.9555 7.68793 99.8122 7.58724 99.6374 7.5362C99.4625 7.48502 98.9324 7.25995 98.4598 7.03587C97.9872 6.81193 97.525 6.62865 97.4328 6.62865C97.3408 6.62865 97.1549 6.5748 97.0199 6.50904C96.8848 6.44327 96.5518 6.29533 96.2796 6.18034C96.0074 6.06522 95.5621 5.89105 95.2899 5.79304C95.0178 5.69516 94.6064 5.58143 94.3756 5.54049C94.1451 5.49954 93.8701 5.38063 93.7647 5.27616C93.6594 5.17169 93.4028 5.08419 93.1945 5.08166C92.9862 5.07928 92.6922 4.98463 92.5414 4.87132C92.3904 4.75816 92.1273 4.66547 91.9566 4.66547C91.786 4.66547 91.4642 4.57124 91.2414 4.45597C91.0187 4.34084 90.6653 4.24619 90.456 4.24563C90.2468 4.24521 90.0385 4.18533 89.9933 4.11269C89.9479 4.04006 89.6261 3.93811 89.278 3.88637C88.93 3.83462 88.6451 3.73632 88.6451 3.66789C88.6451 3.5996 88.4841 3.54365 88.2871 3.54365C88.0902 3.54365 87.7007 3.449 87.4216 3.33331C87.1424 3.21762 86.7468 3.12255 86.5425 3.12213C86.3382 3.12157 85.9887 3.02692 85.766 2.91179C85.5432 2.79652 85.0979 2.70033 84.7764 2.6978C84.4547 2.69542 84.0681 2.60076 83.9172 2.48746C83.7662 2.3743 83.3441 2.28161 82.979 2.28161C82.614 2.28161 82.1331 2.18737 81.9103 2.07211C81.6877 1.95698 81.1841 1.86233 80.7915 1.86177C80.3987 1.86135 80.0157 1.79965 79.9401 1.72463C79.8646 1.64974 79.3269 1.54976 78.7454 1.50265C78.1639 1.45539 77.5927 1.37798 77.4761 1.33045C77.3595 1.28305 76.596 1.16035 75.7795 1.05799C74.9631 0.95548 73.4044 0.776409 72.3157 0.65988C71.2271 0.543352 69.4139 0.391486 68.2864 0.322354C67.1589 0.253222 65.632 0.162775 64.8933 0.121267C64.1546 0.0799004 62.0067 0.0282976 60.1205 0.00684287C58.234 -0.0146119 56.5163 0.0160989 56.3032 0.0749943ZM59.6622 7.51208C59.6622 7.61234 59.5933 7.76281 59.509 7.84638C59.4246 7.9301 59.3207 8.40014 59.2781 8.89108C59.2354 9.38201 59.1437 9.85542 59.0741 9.94292C59.0047 10.0304 58.909 10.5352 58.8615 11.0647C58.8141 11.5942 58.7274 12.0905 58.6689 12.1676C58.6105 12.2447 58.5168 12.718 58.4605 13.2193C58.4042 13.7206 58.3022 14.1998 58.2336 14.2842C58.1652 14.3686 58.0946 14.7665 58.077 15.1683C58.0543 15.6856 58.1057 15.9372 58.2527 16.0295C58.3689 16.1023 60.3699 16.1607 62.7901 16.162C66.2732 16.1637 67.2374 16.2052 67.7209 16.3744C68.0514 16.4901 68.5525 16.5867 68.8344 16.5893C69.1162 16.5917 69.4703 16.6863 69.6212 16.7996C69.7722 16.9128 70.0743 17.0055 70.2927 17.0055C70.5112 17.0055 70.6899 17.0635 70.6899 17.1346C70.6899 17.2056 70.8807 17.3053 71.114 17.356C71.3473 17.4068 71.5381 17.5023 71.5381 17.568C71.5381 17.6338 71.6621 17.7268 71.8137 17.7745C71.9654 17.8221 72.3789 18.1325 72.7327 18.464C73.0865 18.7955 73.3761 19.1348 73.3761 19.218C73.3761 19.3013 73.4562 19.4527 73.5541 19.5546C73.652 19.6565 73.8231 20.0554 73.9344 20.441C74.0456 20.8266 74.162 21.54 74.193 22.0263C74.2321 22.6417 74.181 23.053 74.0247 23.3796C73.9012 23.6378 73.8002 24.1627 73.8002 24.5462C73.8002 24.9298 73.7048 25.5119 73.5882 25.8398C73.4715 26.1676 73.3761 26.7309 73.3761 27.0914C73.3761 27.452 73.3119 27.8105 73.2336 27.8882C73.1551 27.966 73.0301 28.5307 72.9558 29.1432C72.8814 29.7558 72.7503 30.6986 72.6645 31.2385C72.5787 31.7784 72.4509 32.441 72.3806 32.7109C72.3102 32.9808 72.2148 33.5803 72.1686 34.0431C72.1222 34.5058 72.0251 34.9443 71.9525 35.0176C71.8801 35.0908 71.8194 35.4379 71.8175 35.7889C71.8157 36.1397 71.7454 36.6793 71.6613 36.9878C71.5772 37.2963 71.4624 38.0432 71.4061 38.6474C71.3406 39.3512 71.2316 39.792 71.103 39.8737C70.9924 39.9438 69.375 39.9857 67.5088 39.967C64.5749 39.9372 64.1228 39.9041 64.1683 39.7223C64.1971 39.6066 64.3141 39.0387 64.428 38.4602C64.5421 37.8818 64.6866 37.0615 64.7492 36.6373C64.8119 36.2131 64.9336 35.6883 65.0197 35.4713C65.1056 35.2542 65.1761 34.8044 65.1761 34.4717C65.1761 34.1391 65.2715 33.6405 65.3881 33.3635C65.5048 33.0867 65.6002 32.5819 65.6002 32.2417C65.6002 31.9016 65.6956 31.3968 65.8123 31.1199C65.9289 30.8431 66.0253 30.3463 66.0265 30.016C66.0276 29.6858 66.1203 29.1632 66.2323 28.8547C66.3444 28.5462 66.4389 27.9977 66.4423 27.6359C66.4456 27.2742 66.5056 26.9431 66.5754 26.9003C66.6453 26.8575 66.7472 26.3802 66.8019 25.8398C66.8566 25.2993 66.9586 24.822 67.0284 24.7792C67.0983 24.7365 67.1547 24.4369 67.1538 24.1137C67.153 23.7905 67.056 23.2112 66.9384 22.8264C66.8206 22.4412 66.5573 21.9844 66.3523 21.8098C66.1478 21.6355 65.8682 21.4927 65.7314 21.4927C65.5944 21.4927 65.456 21.4139 65.4236 21.3174C65.3788 21.1841 64.4 21.1315 61.3315 21.0974C57.7437 21.0577 57.2728 21.0782 57.0665 21.2828C56.939 21.4093 56.8347 21.6588 56.8347 21.8373C56.8347 22.0158 56.7396 22.3425 56.6234 22.5635C56.5074 22.7844 56.4119 23.2261 56.4114 23.5451C56.4109 23.864 56.3155 24.3057 56.1993 24.5267C56.0832 24.7475 55.9878 25.2153 55.9872 25.5663C55.9868 25.9172 55.927 26.2642 55.8545 26.3376C55.7818 26.4108 55.6587 26.881 55.5805 27.3823C55.5024 27.8836 55.3366 28.767 55.2119 29.3454C55.0872 29.9239 54.9338 30.7779 54.871 31.243C54.8083 31.7083 54.6836 32.2247 54.5941 32.3908C54.5044 32.5567 54.4312 32.9728 54.4312 33.3156C54.4312 33.6583 54.3358 34.1652 54.2191 34.4421C54.1025 34.719 54.0071 35.2504 54.0071 35.6231C54.0071 35.9959 53.9398 36.3675 53.8575 36.4491C53.7753 36.5305 53.6713 36.9692 53.6263 37.4237C53.5814 37.878 53.4937 38.3145 53.4315 38.3936C53.3693 38.4727 53.2743 38.867 53.2203 39.27L53.1223 40.0027H49.8971C48.1234 40.0027 46.6444 39.9555 46.6106 39.8975C46.577 39.8396 46.6016 39.4769 46.6656 39.0912C46.7295 38.7056 46.8826 37.8853 47.0059 37.2683C47.1291 36.6513 47.2871 35.8068 47.3571 35.3918C47.4271 34.9768 47.5522 34.5698 47.6354 34.4873C47.7183 34.405 47.7864 34.0011 47.7864 33.5898C47.7864 33.1786 47.8818 32.6155 47.9984 32.3387C48.1151 32.0618 48.2105 31.5978 48.2105 31.3075C48.2105 31.0172 48.3055 30.5991 48.4217 30.3781C48.5378 30.1572 48.6332 29.6579 48.6338 29.2683C48.6342 28.8789 48.7036 28.4917 48.7879 28.4082C48.8723 28.3245 48.9762 27.8544 49.0188 27.3635C49.0615 26.8725 49.1531 26.3994 49.2223 26.3121C49.2918 26.2247 49.4097 25.7514 49.4845 25.2604C49.5592 24.7693 49.7008 23.8941 49.799 23.3157C49.8973 22.7372 50.0176 22.2009 50.0664 22.1238C50.1152 22.0466 50.1997 21.5582 50.2541 21.0385C50.3087 20.5187 50.4121 20.0575 50.4836 20.0136C50.5553 19.9696 50.6168 19.6377 50.6202 19.2759C50.6236 18.9141 50.718 18.3657 50.8301 18.0572C50.9421 17.7487 51.0371 17.2123 51.0409 16.8652C51.0449 16.5182 51.139 16.0765 51.2502 15.8836C51.3613 15.6908 51.4544 15.2459 51.4573 14.895C51.46 14.5441 51.5312 14.1886 51.6155 14.105C51.6999 14.0213 51.8011 13.5512 51.8404 13.0603C51.8799 12.5694 52.0017 11.9688 52.1113 11.7258C52.2209 11.4828 52.3105 10.9974 52.3105 10.6473C52.3105 10.2971 52.3697 9.97433 52.442 9.93002C52.5144 9.8857 52.6155 9.4876 52.6666 9.04532C52.718 8.60305 52.8306 8.03611 52.917 7.78552L53.0742 7.32979H56.3682C58.9767 7.32979 59.6622 7.36779 59.6622 7.51208ZM39.5863 16.3744C39.9169 16.4901 40.4497 16.5867 40.7705 16.5893C41.0912 16.5917 41.4771 16.6863 41.628 16.7996C41.779 16.9128 42.0811 17.0055 42.2995 17.0055C42.518 17.0055 42.6967 17.0686 42.6967 17.1457C42.6967 17.2228 42.7692 17.2859 42.8579 17.2859C42.9466 17.2859 43.2966 17.4233 43.6354 17.5912C43.9745 17.7592 44.2519 17.9485 44.2519 18.0119C44.2519 18.0754 44.3213 18.1273 44.406 18.1273C44.4908 18.1273 44.865 18.441 45.2376 18.8243C45.6102 19.2079 45.9539 19.6022 46.0016 19.7008C46.0491 19.7995 46.168 20.0037 46.2657 20.1547C46.3634 20.3057 46.5228 20.5152 46.62 20.6204C46.7172 20.7255 46.7967 20.9296 46.7967 21.0737C46.7967 21.218 46.8566 21.3727 46.9299 21.4176C47.0031 21.4626 47.1059 21.7826 47.1583 22.1288C47.2106 22.475 47.3098 22.7928 47.3785 22.8348C47.4473 22.8771 47.5036 24.0084 47.5036 25.349C47.5036 26.6895 47.4462 27.8216 47.3761 27.8645C47.3061 27.9076 47.2043 28.3215 47.1501 28.7845C47.096 29.2476 46.9942 29.6615 46.9242 29.7046C46.8541 29.7475 46.7967 29.9246 46.7967 30.0982C46.7967 30.2717 46.7032 30.5361 46.5891 30.6859C46.4749 30.8355 46.3795 31.0923 46.3771 31.2565C46.3745 31.4205 46.2771 31.6333 46.1605 31.7293C46.0438 31.8254 45.9484 32.0147 45.9484 32.15C45.9484 32.2853 45.853 32.4746 45.7363 32.5707C45.6197 32.6667 45.5243 32.8638 45.5243 33.0085C45.5243 33.1533 45.4649 33.2718 45.3924 33.2718C45.3198 33.2718 45.2171 33.4078 45.1638 33.5741C45.1106 33.7404 44.9302 34.0086 44.7628 34.1701C44.5954 34.3316 44.2718 34.7161 44.0436 35.0246C43.8154 35.3331 43.2759 35.9201 42.8446 36.3289C42.4134 36.7378 41.6469 37.3453 41.1415 37.679C40.6361 38.0127 40.0795 38.3292 39.9044 38.3824C39.7294 38.4357 39.5863 38.5379 39.5863 38.6098C39.5863 38.6818 39.4848 38.7407 39.3607 38.7407C39.2367 38.7407 38.9662 38.8266 38.7598 38.9315C38.5534 39.0365 38.1619 39.2013 37.8898 39.2975C37.6176 39.3938 37.0768 39.5265 36.688 39.5923C36.2992 39.658 35.7267 39.7765 35.4156 39.8555C35.0817 39.9402 32.8581 39.997 29.9849 39.9942C26.1478 39.9904 25.0953 40.0278 25.0036 40.1713C24.9395 40.2714 24.8862 40.5583 24.885 40.809C24.8838 41.0597 24.8257 41.2648 24.7557 41.2648C24.6859 41.2648 24.5827 41.7197 24.5264 42.2758C24.4701 42.8318 24.3744 43.384 24.3138 43.5028C24.2531 43.6216 24.1314 44.1289 24.0433 44.6302C23.9552 45.1315 23.8291 45.9203 23.7631 46.383C23.6971 46.8458 23.5721 47.4021 23.4853 47.6192C23.3986 47.8362 23.3277 48.1676 23.3277 48.3553V48.6968H20.0052C17.1153 48.6968 16.6828 48.6689 16.6828 48.482C16.6828 48.3638 16.7782 48.0405 16.8949 47.7637C17.0115 47.4868 17.1069 46.9912 17.1069 46.6624C17.1069 46.3335 17.202 45.8838 17.3182 45.6628C17.4342 45.442 17.5297 44.974 17.5302 44.6232C17.5307 44.2722 17.6001 43.9167 17.6843 43.8332C17.7687 43.7494 17.8727 43.2794 17.9152 42.7885C17.9579 42.2975 18.0439 41.8311 18.1064 41.752C18.1687 41.673 18.2605 41.2628 18.3102 40.8406C18.3599 40.4184 18.4551 39.9466 18.522 39.7924C18.5887 39.6381 18.7081 39.1018 18.787 38.6004C18.866 38.0991 19.0311 37.1526 19.154 36.497C19.2768 35.8415 19.4318 34.9265 19.4982 34.4637C19.5647 34.001 19.6901 33.4447 19.7769 33.2276C19.8636 33.0106 19.9345 32.5656 19.9345 32.239C19.9345 31.9124 20.0049 31.5753 20.0912 31.4898C20.1773 31.4044 20.2811 30.9027 20.3216 30.375C20.3622 29.8473 20.455 29.3411 20.5276 29.25C20.6003 29.1589 20.6962 28.7172 20.7405 28.2684C20.7848 27.8196 20.8761 27.3828 20.9433 27.2979C21.0106 27.2127 21.1071 26.7395 21.1579 26.2461C21.2087 25.7527 21.294 25.3174 21.3476 25.2789C21.4014 25.2403 21.515 24.767 21.6003 24.2272C21.6855 23.6873 21.8579 22.7723 21.9833 22.1939C22.1087 21.6154 22.2691 20.7483 22.3397 20.267C22.4104 19.7856 22.5342 19.2691 22.6151 19.1192C22.696 18.9695 22.7621 18.5659 22.7621 18.2226C22.7621 17.8794 22.8571 17.4177 22.9734 17.1967C23.0894 16.9759 23.1849 16.6532 23.1854 16.4796L23.1863 16.1641H31.0857C37.7461 16.1641 39.0795 16.1971 39.5863 16.3744ZM95.8555 16.3744C96.186 16.4901 96.7295 16.5848 97.0631 16.5848C97.3968 16.5848 97.6924 16.6519 97.72 16.7341C97.7475 16.8162 98.0392 16.9191 98.368 16.9628C98.6968 17.0066 98.9658 17.0823 98.9658 17.1311C98.9658 17.1798 99.2998 17.3761 99.7081 17.5673C100.116 17.7586 100.603 18.0416 100.79 18.1964C100.977 18.3512 101.295 18.6437 101.497 18.8464C101.699 19.0491 101.991 19.3712 102.147 19.5624C102.302 19.7535 102.534 20.124 102.662 20.3858C102.789 20.6476 102.996 21.0921 103.121 21.3737C103.246 21.6553 103.349 22.0128 103.349 22.1683C103.349 22.3237 103.428 22.4773 103.525 22.5094C103.659 22.5535 103.701 23.2381 103.698 25.3082C103.696 27.1076 103.641 28.1148 103.538 28.2413C103.451 28.3473 103.335 28.7652 103.28 29.17C103.226 29.5749 103.123 29.9414 103.053 29.9846C102.982 30.0278 102.924 30.205 102.924 30.3786C102.924 30.5521 102.831 30.8166 102.717 30.9663C102.603 31.116 102.507 31.3737 102.505 31.539C102.502 31.7043 102.405 31.8758 102.288 31.9203C102.172 31.9646 102.076 32.1606 102.076 32.356C102.076 32.5512 102.017 32.7109 101.944 32.7109C101.872 32.7109 101.768 32.8528 101.713 33.0264C101.659 33.2 101.326 33.7205 100.975 34.1833C100.623 34.646 100.282 35.0457 100.216 35.0713C100.15 35.0971 100.097 35.173 100.097 35.24C100.097 35.3071 99.7758 35.6804 99.3832 36.0696C98.9907 36.459 98.6333 36.7775 98.5889 36.7775C98.5446 36.7775 98.2773 36.969 97.9948 37.2031C97.7123 37.4371 97.4128 37.6818 97.3291 37.7467C97.2454 37.8118 97.0385 37.9086 96.8696 37.9617C96.7006 38.0149 96.5624 38.1099 96.5624 38.1729C96.5624 38.2359 96.451 38.3243 96.3149 38.3696C96.1789 38.4151 95.9721 38.5064 95.8555 38.5727C95.7388 38.6391 95.4315 38.7987 95.1725 38.9273C94.9134 39.056 94.5603 39.1614 94.3878 39.1614C94.2153 39.1614 94.0001 39.2347 93.9098 39.3243C93.8194 39.4139 93.409 39.5391 92.9979 39.6025C92.5866 39.6657 91.964 39.7791 91.6141 39.8541C91.2642 39.9291 88.8385 39.9932 86.2235 39.9965C82.1027 40.0019 81.445 40.0317 81.2871 40.2205C81.1869 40.3402 81.0547 40.7032 80.9933 41.0268C80.932 41.3504 80.7804 42.1201 80.6564 42.7371C80.5324 43.3541 80.3813 44.2691 80.3206 44.7704C80.2599 45.2718 80.1359 45.8198 80.045 45.9882C79.9539 46.1567 79.8795 46.593 79.8795 46.9577C79.8795 47.3226 79.7718 47.863 79.6403 48.1589L79.401 48.6968H76.1765C73.0789 48.6968 72.9519 48.6861 72.9519 48.4246C72.9519 48.2749 73.0156 48.1135 73.0933 48.0658C73.1711 48.0181 73.2347 47.6653 73.2347 47.2818C73.2347 46.8982 73.3301 46.3578 73.4468 46.081C73.5634 45.8041 73.6588 45.3085 73.6588 44.9797C73.6588 44.6508 73.7538 44.2011 73.8701 43.9801C73.9861 43.7593 74.0816 43.286 74.0821 42.9284C74.0826 42.571 74.178 42.0977 74.2942 41.8767C74.4103 41.6559 74.5057 41.1879 74.5063 40.8371C74.5067 40.4861 74.5744 40.1323 74.6567 40.0507C74.7388 39.9692 74.8429 39.5306 74.8879 39.0761C74.9328 38.6218 75.0196 38.1862 75.081 38.1082C75.1422 38.0304 75.2373 37.5572 75.2923 37.0565C75.3475 36.5561 75.4319 36.0834 75.4799 36.0062C75.5282 35.9291 75.6488 35.4243 75.7482 34.8844C75.8475 34.3445 75.9882 33.5089 76.0606 33.0277C76.1331 32.5463 76.2585 32.0298 76.3394 31.8799C76.4203 31.7302 76.4864 31.2689 76.4864 30.8551C76.4864 30.4413 76.5537 30.0359 76.636 29.9543C76.7182 29.8728 76.8195 29.4342 76.8611 28.9797C76.9028 28.5254 77.0264 27.9547 77.1358 27.7117C77.2452 27.4686 77.3347 26.9218 77.3347 26.4963C77.3347 26.071 77.3966 25.7019 77.4723 25.6761C77.5478 25.6505 77.6524 25.172 77.7046 24.6128C77.7567 24.0536 77.8465 23.5961 77.904 23.5961C77.9616 23.5961 78.0542 23.1701 78.1098 22.6496C78.1653 22.1291 78.2605 21.64 78.3211 21.5628C78.3818 21.4857 78.4759 20.9973 78.5304 20.4776C78.5848 19.9578 78.688 19.4966 78.7595 19.4527C78.8312 19.4087 78.8899 19.132 78.8899 18.8378C78.8899 18.5435 78.9853 18.0344 79.102 17.7066C79.2186 17.3787 79.314 16.8975 79.314 16.6372V16.1641H87.2842C94.0075 16.1641 95.3485 16.1971 95.8555 16.3744ZM28.8768 21.4019C28.6284 21.6679 28.5587 21.9089 28.5587 22.5011C28.5587 22.9183 28.4883 23.3294 28.4021 23.415C28.316 23.5004 28.2139 24.0021 28.1753 24.5298C28.1367 25.0574 28.0164 25.7596 27.9078 26.0901C27.7992 26.4206 27.7104 27.0568 27.7104 27.504C27.7104 27.9512 27.6628 28.3639 27.6044 28.4209C27.546 28.478 27.4173 29.0721 27.3185 29.7415C27.2196 30.4106 27.077 31.4313 27.0018 32.0098C26.9265 32.5882 26.8006 33.2065 26.7222 33.3836C26.6436 33.5607 26.5794 33.9222 26.5794 34.1866C26.5794 34.5453 26.6696 34.7262 26.9341 34.8982C27.2432 35.099 27.6864 35.1213 30.3824 35.0715C32.3115 35.0359 33.5484 34.9569 33.6683 34.8618C33.7739 34.778 34.1612 34.6664 34.5287 34.6135C34.8962 34.5608 35.234 34.4581 35.2793 34.3855C35.3246 34.3129 35.4805 34.2534 35.626 34.2534C35.7713 34.2534 35.9773 34.167 36.0836 34.0616C36.1901 33.956 36.4173 33.8256 36.5886 33.7717C36.7599 33.7177 36.9001 33.6148 36.9001 33.5429C36.9001 33.4709 36.9888 33.412 37.0969 33.412C37.2052 33.412 37.6347 33.0463 38.0512 32.5993C38.4679 32.1524 39.0154 31.3942 39.2682 30.9146C39.521 30.4349 39.7297 29.9014 39.7322 29.729C39.7346 29.5566 39.8301 29.293 39.9443 29.1434C40.0624 28.9886 40.1527 28.5654 40.154 28.1618C40.1551 27.7715 40.2478 27.2 40.3598 26.8915C40.4719 26.583 40.5664 25.9723 40.5698 25.5342C40.5739 25.0065 40.5044 24.6671 40.3639 24.5277C40.2473 24.412 40.1518 24.1531 40.1518 23.9523C40.1518 23.7515 40.0564 23.551 39.9398 23.5067C39.8231 23.4622 39.7277 23.367 39.7277 23.2951C39.7277 23.223 39.5884 22.9773 39.4184 22.7492C39.2483 22.5209 39.0324 22.3341 38.9387 22.3341C38.8449 22.3341 38.7317 22.2394 38.6869 22.1238C38.6422 22.0081 38.4841 21.9134 38.3357 21.9134C38.1872 21.9134 37.9866 21.8188 37.8898 21.7031C37.7929 21.5874 37.5434 21.4927 37.3353 21.4927C37.127 21.4927 36.8772 21.4139 36.7801 21.3174C36.65 21.1883 35.6281 21.1315 32.8992 21.1016L29.1949 21.0611L28.8768 21.4019ZM85.1557 21.3072C85.1034 21.4479 84.9972 21.6048 84.9199 21.6561C84.8425 21.7074 84.7416 22.2438 84.6956 22.848C84.6496 23.4523 84.5527 24.0394 84.4803 24.1526C84.4081 24.2659 84.3006 24.8338 84.2417 25.4146C84.1827 25.9956 84.0363 27.0387 83.9161 27.7328C83.7961 28.427 83.636 29.405 83.5604 29.9064C83.4847 30.4077 83.3572 31.0383 83.277 31.3076C83.1969 31.5772 83.1313 32.0562 83.1313 32.3721C83.1313 32.6882 83.0384 33.253 82.9247 33.6274C82.7661 34.1502 82.7563 34.3586 82.8825 34.5261C82.9728 34.646 83.1415 34.8231 83.2574 34.9195C83.4095 35.0461 84.1581 35.092 85.9505 35.0845C87.316 35.0789 88.7511 35.019 89.1399 34.9515C89.5287 34.884 90.1963 34.7638 90.6234 34.6843C91.0505 34.6049 91.4216 34.4755 91.4481 34.3967C91.4745 34.3179 91.6422 34.2534 91.8206 34.2534C91.999 34.2534 92.2241 34.1587 92.321 34.0431C92.4178 33.9274 92.5554 33.8327 92.6268 33.8327C92.6982 33.8327 92.9569 33.6908 93.2018 33.5172C93.4466 33.3436 93.953 32.8881 94.3271 32.5049C94.7011 32.1218 95.0072 31.7634 95.0072 31.7087C95.0072 31.6539 95.0868 31.5229 95.1839 31.4174C95.2812 31.312 95.472 31.0184 95.608 30.765C95.744 30.5116 95.8555 30.1952 95.8555 30.062C95.8555 29.9288 95.9489 29.6973 96.063 29.5475C96.1772 29.3979 96.2727 29.0463 96.2751 28.7666C96.2776 28.4868 96.375 28.0314 96.4917 27.7544C96.6322 27.4208 96.7037 26.778 96.7037 25.8486C96.7037 24.6776 96.6523 24.3471 96.392 23.8459C96.2205 23.5156 96.0296 23.2245 95.9678 23.1989C95.9061 23.1731 95.8555 23.0943 95.8555 23.0236C95.8555 22.9529 95.7282 22.7688 95.5727 22.6145C95.4172 22.4603 95.2316 22.3341 95.1603 22.3341C95.089 22.3341 95.0096 22.2839 94.9836 22.2226C94.9577 22.1613 94.6642 21.972 94.3312 21.8019C93.9984 21.6318 93.5743 21.4927 93.3888 21.4927C93.2032 21.4927 93.025 21.4139 92.9927 21.3174C92.948 21.1845 92.007 21.1312 89.0924 21.0969C85.4814 21.0544 85.2453 21.067 85.1557 21.3072Z" fill="#8B94AA"/>
</svg>
