<svg width="25" height="24" viewBox="0 0 25 24" fill="none" xmlns="http://www.w3.org/2000/svg">
<path d="M12.5103 0.000212611C0.610802 0.000212611 0.58781 0.000996515 0.370345 0.218104C-0.00811837 0.595962 -0.0180171 1.03754 0.00925868 5.78601L0.00653903 17.4265L0.0345934 19.7153H0.0349045C0.0662871 20.288 0.366186 20.3782 0.693126 20.3985L22.9535 20.3981C24.4044 20.3936 24.8598 20.3336 24.8796 19.8505L24.9891 0.747317C25.0608 0.319812 24.7682 -0.00943971 24.4325 0.000206628L12.5103 0.000212611ZM0.879547 1.0081H12.5254H24.1713H24.1716L24.2114 19.3925H12.5655H0.91937L0.827063 15.2836C0.797949 13.7711 0.798057 10.0287 0.827063 6.96699L0.879547 1.0081ZM15.6835 21.0533L12.5118 21.082L9.3405 21.1112V21.6385V22.1658H7.62948H5.91847V22.7459V23.3261L12.5118 23.3299L19.1052 23.3333V22.7497V22.1658H17.3942H15.6832L15.6835 21.6094L15.6835 21.0533ZM14.9996 21.6683L14.9809 22.2481V22.6092L15.637 22.6038H18.602L18.5957 22.8592L12.4594 22.8439L6.3236 22.8416L6.32329 22.857V22.8416H6.3236L6.32933 22.6038H9.29434L9.95679 22.5958V22.2535L9.97549 21.6924L12.4844 21.6817L14.9996 21.6683Z" fill="#00FF00"/>
</svg>
