<svg width="43" height="44" viewBox="0 0 43 44" fill="none" xmlns="http://www.w3.org/2000/svg">
<path d="M9.74481 18.8802C9.74481 18.6447 9.78741 18.5483 9.83947 18.6661C9.89153 18.7839 9.89153 18.9766 9.83947 19.0944C9.78741 19.2121 9.74481 19.1158 9.74481 18.8802Z" fill="#00FF00"/>
<path d="M29.0213 11.7284C28.7879 11.4567 28.7945 11.4506 29.0922 11.6637C29.4048 11.8875 29.5042 12.0282 29.3497 12.0282C29.3108 12.0282 29.163 11.8933 29.0213 11.7284ZM13.2809 10.9357C13.2809 10.9001 13.4287 10.7652 13.6094 10.6359C13.907 10.4228 13.9137 10.4289 13.6802 10.7006C13.4351 10.9859 13.2809 11.0767 13.2809 10.9357ZM22.5503 3.12062C22.5503 1.84872 22.5798 1.3284 22.616 1.96435C22.6521 2.6003 22.6521 3.64094 22.616 4.27689C22.5798 4.91283 22.5503 4.39251 22.5503 3.12062Z" fill="#00FF00"/>
<path d="M29.9596 10.7006C29.7262 10.4289 29.7329 10.4229 30.0305 10.636C30.3431 10.8597 30.4425 11.0004 30.2881 11.0004C30.2491 11.0004 30.1013 10.8655 29.9596 10.7006Z" fill="#00FF00"/>
<path d="M20.2652 43.061C19.2522 42.7324 18.348 42.1092 18.348 41.7396C18.348 41.6263 18.4715 41.44 18.6224 41.3257C18.8423 41.1591 19.1075 41.206 19.9587 41.5617C21.4091 42.1677 22.4491 42.1491 23.7205 41.4942C24.7598 40.9588 25.1934 40.9581 25.3462 41.4916C25.4635 41.901 24.88 42.4019 23.7582 42.8548C22.4656 43.3767 21.4271 43.438 20.2652 43.0611V43.061ZM16.2706 40.7064C15.7282 40.1098 16.2745 39.9005 21.6516 38.6459C25.3189 37.7901 26.9854 37.4708 27.2155 37.5796C27.5996 37.7614 27.6479 38.2875 27.3043 38.5477C27.0442 38.7448 17.4607 40.9777 16.875 40.9777C16.6782 40.9777 16.4063 40.8556 16.2706 40.7064ZM16.1838 37.3631C16.115 37.1652 16.1464 36.9232 16.2536 36.8254C16.5202 36.5821 26.9889 34.2631 27.3111 34.376C27.4663 34.4304 27.5453 34.6544 27.5095 34.9384C27.4506 35.4061 27.4048 35.421 22.5706 36.5517C17.152 37.8191 16.3766 37.9176 16.1838 37.3631ZM16.4244 34.6245C16.0424 34.423 15.9919 33.9012 16.3306 33.6534C16.4596 33.5589 18.724 33.0027 21.3627 32.4172L26.1602 31.3527L26.4653 30.1659C26.8579 28.639 27.6817 27.3387 29.1667 25.9018C31.4747 23.6687 32.4394 21.6291 32.4476 18.9657C32.4502 18.1178 32.3505 17.0386 32.2259 16.5676C31.4284 13.5505 28.7144 10.7363 25.5237 9.61804C24.1894 9.15037 21.0284 8.97505 19.4212 9.27958C15.5557 10.0121 12.0738 13.3722 11.3996 17.0207C10.9665 19.3642 11.4355 21.9263 12.641 23.804C12.9075 24.219 13.7045 25.1383 14.4122 25.8469C16.2993 27.7365 17.5795 30.2572 17.5928 32.1097C17.5967 32.6532 17.5259 32.7652 17.1194 32.8583C16.8566 32.9185 16.5944 32.9248 16.5368 32.8722C16.4793 32.8196 16.3205 32.2414 16.1839 31.5873C15.8379 29.9299 14.8641 28.2725 13.1867 26.4862C10.6596 23.795 9.80364 21.6528 9.94404 18.3706C10.0747 15.3164 10.981 13.3395 13.2759 11.1029C14.6384 9.77509 16.1877 8.8727 18.0518 8.32117C19.3126 7.94814 19.9312 7.87072 21.7261 7.86138C25.4812 7.84184 27.5622 8.61197 30.19 10.9936C32.1696 12.7877 33.2113 14.5361 33.6643 16.8244C34.3806 20.4433 33.4068 23.3845 30.4647 26.4884C28.6799 28.3715 28.0264 29.4295 27.6739 31.0066C27.5439 31.5884 27.3559 32.1357 27.2561 32.223C27.1563 32.3103 24.879 32.8926 22.1953 33.5171C19.5116 34.1417 17.1892 34.6852 17.0343 34.7251C16.8795 34.765 16.605 34.7196 16.4244 34.6244V34.6245ZM36.1635 29.5792C34.026 27.9505 33.3617 27.3616 33.3617 27.0957C33.3617 26.9082 33.9088 26.4173 34.1177 26.4173C34.3886 26.4173 39.1173 30.1336 39.251 30.4515C39.3994 30.8046 39.0646 31.2136 38.6271 31.2136C38.4518 31.2136 37.3432 30.4781 36.1635 29.5792ZM4.38799 30.7805C4.21197 30.6198 4.1524 30.3982 4.23383 30.2071C4.39771 29.8224 8.75967 26.4173 9.08855 26.4173C9.41007 26.4173 9.74057 27.014 9.60182 27.344C9.49275 27.6035 6.33153 30.1692 5.40391 30.7512C4.83519 31.108 4.74954 31.1105 4.38799 30.7805ZM0.985636 17.5015C0.721715 16.7425 1.11653 16.6411 4.13872 16.6917C6.52521 16.7317 6.98357 16.7823 7.15056 17.0243C7.29338 17.2312 7.2797 17.3843 7.10085 17.581C6.89543 17.8069 6.37354 17.8523 3.98087 17.8523C1.25 17.8523 1.10158 17.8349 0.985636 17.5015ZM36.2488 17.6054C36.1917 17.4695 36.1743 17.219 36.2102 17.0486C36.2695 16.7668 36.5582 16.7346 39.4074 16.6919C42.3515 16.6478 42.5513 16.6651 42.7358 16.9798C42.8851 17.2344 42.8615 17.379 42.6376 17.5835C42.2188 17.9657 36.4086 17.9856 36.2488 17.6054ZM8.82028 8.33714C6.80102 6.78152 6.43791 6.29697 7.00683 5.91726C7.19403 5.79231 7.41012 5.69008 7.48705 5.69008C7.69022 5.69008 11.4458 8.71265 11.6437 9.03546C11.8914 9.4394 11.6639 9.80125 11.1622 9.80125C10.8814 9.80125 10.0292 9.26847 8.82028 8.33714ZM31.5986 9.52958C31.4241 9.1147 31.6356 8.88431 33.7128 7.22641C35.6366 5.69086 36.377 5.36923 36.6258 5.96103C36.8276 6.44106 36.7701 6.50581 34.6667 8.1655C32.5956 9.79982 31.8513 10.1307 31.5986 9.52958ZM21.3883 5.82711C21.2335 5.68581 21.1631 4.83166 21.1631 3.09484C21.1631 0.880971 21.2031 0.547661 21.4866 0.40284C21.6919 0.297988 21.9321 0.297084 22.1435 0.400362C22.4399 0.545151 22.4768 0.846091 22.4768 3.12059C22.4768 5.47373 22.4478 5.69219 22.1138 5.85535C21.6614 6.07635 21.6613 6.07634 21.3883 5.82711Z" fill="#00FF00"/>
</svg>
