<svg width="32" height="28" viewBox="0 0 32 28" fill="none" xmlns="http://www.w3.org/2000/svg">
<path fill-rule="evenodd" clip-rule="evenodd" d="M29.3767 0.508539C27.2745 1.32468 12.7961 6.9084 7.5729 8.9173C4.88935 9.94945 2.27238 10.9972 1.75732 11.2455C0.751495 11.7306 0 12.348 0 12.6892C0 13.2808 0.917489 13.7373 4.11681 14.7374C7.04005 15.6511 7.82814 15.9547 7.93101 16.2068C7.9796 16.3257 8.41364 17.7267 8.89556 19.32C10.7421 25.4252 10.8658 25.7433 11.42 25.8076C11.5756 25.8256 11.8257 25.7612 11.9759 25.6644C12.2486 25.4886 14.0558 24.0535 14.5359 23.6315C15.4229 22.8518 15.6549 22.6672 16.106 22.3822C16.4127 22.1885 16.7425 22.0646 16.9519 22.0646C17.2976 22.0646 17.9448 22.3858 18.6019 22.8834C18.7976 23.0316 19.3465 23.433 19.8217 23.7754C20.2969 24.1179 21.0516 24.6661 21.4989 24.9936C25.4093 27.8576 25.2564 27.7569 25.6949 27.7569C26.3009 27.7569 26.4998 27.2937 27.0336 24.6391C27.2565 23.5306 27.4595 22.5093 27.4845 22.3695C27.5096 22.2297 27.9249 20.24 28.4073 17.9478C28.8897 15.6556 29.6965 11.8132 30.2002 9.40919C30.7039 7.00517 31.3001 4.16915 31.5251 3.10691C32.0793 0.49075 32.0842 0.449684 31.8651 0.207656C31.5485 -0.142222 30.8286 -0.0552095 29.3767 0.508539ZM27.3438 5.28201C27.3438 5.40195 25.68 6.86561 22.3629 9.66382C20.8814 10.9136 19.1203 12.4181 18.4494 13.0071C16.6958 14.5469 14.185 17.0369 13.7812 17.6369C13.4452 18.1359 13.4316 18.1959 13.3178 19.6758C13.1414 21.9715 12.8948 23.0811 12.5609 23.0811C12.3778 23.0811 11.9639 22.0269 11.6365 20.7269C11.491 20.1488 11.1882 19.0583 10.9635 18.3035C10.6997 17.4172 10.5518 16.7153 10.5458 16.3214C10.5236 14.8329 10.6503 14.7421 21.753 8.29887C24.6882 6.59552 27.1469 5.19937 27.2167 5.19632C27.2866 5.19327 27.3438 5.23179 27.3438 5.28201Z" fill="#00FF00"/>
</svg>
