<svg width="32" height="32" viewBox="0 0 32 32" fill="none" xmlns="http://www.w3.org/2000/svg">
<path fill-rule="evenodd" clip-rule="evenodd" d="M14.478 0.0167431C9.48159 0.611034 5.36147 3.09323 2.67651 7.12668C0.313528 10.6764 -0.525406 14.9614 0.321989 19.1528C0.686189 20.9543 1.54445 23.1109 2.45108 24.5027L2.8069 25.049L2.0435 28.5042C1.62363 30.4046 1.298 31.9773 1.31991 31.9992C1.34182 32.0212 2.87495 31.56 4.72695 30.9743L8.09426 29.9096L8.94807 30.3382C10.4227 31.0783 11.8982 31.5354 13.7192 31.8163C15.0729 32.0251 17.8733 31.9565 19.1352 31.6836C22.3628 30.9856 25.0358 29.5522 27.2843 27.3134C31.5704 23.0459 33.0745 16.8129 31.2184 11.0104C30.8495 9.85716 29.746 7.66387 29.0446 6.68971C26.6404 3.35078 23.1852 1.11998 19.1095 0.275537C18.2157 0.0903279 17.68 0.0383907 16.3929 0.0121995C15.5111 -0.00570671 14.6494 -0.00365752 14.478 0.0167431ZM18.671 2.53983C24.314 3.75015 28.5017 8.08141 29.4879 13.7275C29.6544 14.6808 29.6764 16.9805 29.5283 17.9591C28.8518 22.4298 26.1057 26.2105 22.0581 28.2437C19.8918 29.3319 17.2907 29.8385 14.9243 29.633C12.9572 29.4622 11.5292 29.0624 9.78852 28.1953L8.70643 27.6563L6.37845 28.3871C5.098 28.789 4.02803 29.0956 4.00077 29.0682C3.97343 29.0409 4.17766 27.9953 4.45458 26.7446C4.73149 25.494 4.96164 24.3987 4.96592 24.3106C4.97028 24.2226 4.78306 23.8701 4.54988 23.5273C2.46141 20.4566 1.74503 16.2651 2.68711 12.6282C3.96755 7.68542 7.72258 3.94427 12.6714 2.68076C13.956 2.35284 14.623 2.28727 16.3039 2.32389C17.3895 2.34749 18.0594 2.40861 18.671 2.53983ZM10.7816 8.17655C10.5219 8.24729 10.2443 8.45735 9.75734 8.95151C8.65014 10.0753 8.36209 10.9239 8.44537 12.8162C8.48126 13.6313 8.55118 14.0934 8.7229 14.6508C9.91811 18.5308 14.2415 22.8453 17.8476 23.7567C18.4698 23.9139 18.7938 23.9393 19.8516 23.9137C21.0503 23.8848 21.1431 23.8693 21.7034 23.6037C22.81 23.0793 23.4533 22.2926 23.5378 21.3599C23.5818 20.8748 23.5668 20.8204 23.3076 20.5251C23.155 20.3514 22.7593 20.068 22.4282 19.8954C21.6272 19.478 19.7933 18.7608 19.5266 18.7608C19.2199 18.7608 18.4989 19.1644 18.0818 19.5696C17.6424 19.9965 17.418 20.0104 16.8432 19.6457C15.903 19.0493 13.5273 16.463 12.7267 15.1644C12.2471 14.3862 12.233 14.1302 12.6524 13.8102C13.1073 13.4632 13.5975 12.7529 13.6494 12.3655C13.6848 12.1022 13.5574 11.6529 13.0505 10.2513C12.6963 9.2724 12.334 8.39473 12.2452 8.30101C12.05 8.09504 11.3118 8.03232 10.7816 8.17655Z" fill="#00FF00"/>
</svg>
