<svg width="90" height="90" viewBox="0 0 90 90" fill="none" xmlns="http://www.w3.org/2000/svg">
<path fill-rule="evenodd" clip-rule="evenodd" d="M42.2919 0.0503638C33.3158 0.643259 24.989 3.72876 17.8717 9.09903C16.2213 10.3444 14.8824 11.5201 13.2076 13.1949C11.4627 14.9399 10.2569 16.324 8.91885 18.118C1.50145 28.0622 -1.45713 40.5028 0.676361 52.7765C2.90071 65.5736 10.7009 76.8872 21.9555 83.6405C33.0818 90.317 46.7354 91.8259 59.078 87.7431C61.2651 87.0197 62.4571 86.5316 64.6631 85.4564C69.3716 83.1616 73.0638 80.5262 76.8047 76.7899C80.42 73.1791 83.0429 69.5362 85.3261 64.9547C87.8622 59.8656 89.3155 54.695 89.8739 48.7747C90.0182 47.2438 90.0182 42.7415 89.8739 41.2106C89.3301 35.4449 87.9366 30.3803 85.5422 25.4669C83.2044 20.6698 80.5416 16.9294 76.8048 13.1939C73.0807 9.47117 69.37 6.82297 64.6631 4.52887C62.4736 3.46173 61.2896 2.97658 59.078 2.24023C55.8864 1.17758 52.7401 0.516518 49.2712 0.179744C47.5533 0.0129835 43.8864 -0.0550046 42.2919 0.0503638ZM47.1603 2.074C56.7073 2.60023 65.1823 5.93349 72.6229 12.0886C73.9241 13.165 76.833 16.0739 77.9095 17.3752C83.7507 24.4363 87.0112 32.3426 87.8477 41.4745C87.9076 42.1276 87.9565 43.7107 87.9565 44.9926C87.9565 48.1432 87.7177 50.6036 87.13 53.5065C84.8536 64.7508 78.1201 74.6547 68.4451 80.9889C56.8122 88.6049 42.1881 90.0823 29.1861 84.9553C27.8983 84.4474 24.9394 83.0161 23.6726 82.2881C20.311 80.3563 17.4437 78.1409 14.5729 75.257C7.32293 67.9741 3.1154 58.9058 2.16313 48.5108C2.02302 46.9821 2.02302 43.0032 2.16313 41.4745C2.48829 37.9248 3.14654 34.6942 4.18457 31.5532C8.04283 19.8788 16.8261 10.3196 28.1623 5.45705C34.0945 2.91255 40.7789 1.72219 47.1603 2.074ZM42.2415 6.46904C35.4837 6.99553 29.0076 9.21874 23.5373 12.8901C19.8484 15.366 16.2244 18.8778 13.6328 22.4882C13.2364 23.0405 12.8858 23.5605 12.8538 23.6441C12.7996 23.7853 12.9476 23.7958 14.9818 23.7956C17.2773 23.7953 19.6198 23.7044 22.9412 23.4866C26.1515 23.2761 26.3339 23.2948 26.8303 23.8847C27.4882 24.6666 27.2275 25.9527 26.3309 26.3481C25.9865 26.5 24.7818 26.6466 22.169 26.8542L21.3649 26.9182L28.3649 47.7416C32.2148 59.1946 35.3917 68.5353 35.4246 68.4987C35.4574 68.4622 37.3638 62.7895 39.6607 55.8928L43.837 43.3534L40.837 35.1226L37.8372 26.8919L36.9577 26.8307C34.8416 26.6837 33.3426 26.4704 33.0188 26.2703C32.0746 25.6867 32.1613 23.9752 33.1591 23.5017C33.5405 23.3208 34.0962 23.3179 36.5619 23.4838C41.8945 23.8429 45.9885 23.8695 50.5025 23.5746C54.2743 23.3282 55.0444 23.3123 55.359 23.4751C55.8122 23.7094 56.1123 24.178 56.1574 24.7216C56.179 24.982 56.1711 25.2967 56.1399 25.4211C56.0581 25.7471 55.5074 26.3221 55.1803 26.4232C54.8471 26.526 53.6474 26.6577 51.7779 26.7965C51.028 26.8522 50.4038 26.9067 50.3906 26.9174C50.3626 26.9401 64.1647 68.026 64.2538 68.1852C64.2867 68.2441 64.9838 66.0479 65.8029 63.3049C66.6221 60.5618 67.6429 57.1698 68.0714 55.767C69.6922 50.4618 69.9792 49.4826 70.3318 48.055C71.3547 43.9139 71.2909 40.7709 70.1108 37.1748C69.6183 35.6735 68.4464 33.2862 67.2658 31.3785C65.5013 28.5275 64.75 26.9748 64.3401 25.3321C64.0582 24.2022 64.0581 22.4566 64.3399 21.471C65.1478 18.6454 67.4527 16.674 70.1426 16.5077L71.0485 16.4517L70.0643 15.6161C64.141 10.5876 57.1946 7.56187 49.4471 6.63554C47.7549 6.43316 43.8576 6.34318 42.2415 6.46904ZM78.957 26.7446C78.9579 26.7917 78.9992 27.2062 79.0488 27.6658C79.1855 28.932 79.1612 32.1805 79.0039 33.6548C78.6756 36.7327 77.9193 39.8023 76.6562 43.1839C76.3658 43.961 73.574 51.9784 70.4521 61.0002C67.3302 70.022 64.7021 77.6145 64.6119 77.8723L64.4478 78.3411L64.8633 78.1018C66.471 77.176 68.7612 75.5038 70.424 74.0414C79.1109 66.4018 83.8969 55.4875 83.5866 44.0252C83.433 38.3506 82.2282 33.3346 79.7906 28.2216C79.2579 27.1042 78.9539 26.5655 78.957 26.7446ZM9.1032 30.809C5.74231 39.344 5.49991 48.6351 8.41179 57.3062C11.0355 65.119 16.1747 71.9623 22.9832 76.7093C24.8772 78.0298 28.2086 79.916 28.0823 79.5964C28.0453 79.503 23.9201 68.2085 18.915 54.4977C13.91 40.7869 9.78545 29.5162 9.7493 29.4518C9.70867 29.379 9.46328 29.8944 9.1032 30.809ZM39.9248 65.1535C36.7752 74.3098 34.1858 81.8577 34.1707 81.9268C34.1173 82.17 37.6362 82.9725 40.168 83.2944C44.9821 83.9065 49.7563 83.6119 54.5437 82.4075C55.6413 82.1314 57.6607 81.523 57.7487 81.442C57.7674 81.4249 57.7017 81.2216 57.6028 80.9903C57.5038 80.7591 54.8023 73.3863 51.5996 64.6063C48.3967 55.8263 45.7482 48.6119 45.7138 48.5743C45.6794 48.5366 43.0744 55.9973 39.9248 65.1535Z" fill="#21759B"/>
</svg>
