<svg width="52" height="35" viewBox="0 0 52 35" fill="none" xmlns="http://www.w3.org/2000/svg">
<path d="M25.831 0.87824C1.81757 0.87824 1.77117 0.879382 1.33232 1.19579C0.568578 1.74648 0.548602 2.39003 0.603645 9.31038L0.598157 26.2751L0.654771 29.6108H0.655399C0.718729 30.4453 1.32393 30.5768 1.9837 30.6064L46.9055 30.6059C49.8334 30.5993 50.7524 30.5118 50.7924 29.8078L51.0134 1.96706C51.1581 1.34402 50.5677 0.864172 49.8902 0.878231L25.831 0.87824ZM2.3599 2.34713H25.8615H49.3631H49.3637L49.444 29.1403H25.9424H2.44027L2.25399 23.1521C2.19524 20.9477 2.19545 15.4936 2.25399 11.0315L2.3599 2.34713ZM32.2345 31.5608L25.8341 31.6026L19.4342 31.645V32.4135V33.182H15.9814H12.5285V34.0275V34.873L25.8341 34.8786L39.1396 34.8836V34.0331V33.182H35.6868H32.2339L32.2345 32.3711L32.2345 31.5608ZM30.8545 32.4571L30.8167 33.302V33.8283L32.1408 33.8205H38.1242L38.1115 34.1927L25.7282 34.1704L13.3461 34.167L13.3455 34.1894V34.167H13.3461L13.3577 33.8205H19.3411L20.6779 33.8088V33.3098L20.7157 32.4922L25.7787 32.4766L30.8545 32.4571Z" fill="#00FF00"/>
</svg>
