<svg width="46" height="31" viewBox="0 0 46 31" fill="none" xmlns="http://www.w3.org/2000/svg">
<path d="M45.7033 25.4485V5.27057C45.7843 1.00072 44.0423 0.541776 40.6585 0.617647H5.82608C1.799 0.526961 0.425041 1.93008 0.628372 5.53117V25.834C0.361326 29.539 2.09112 30.2998 5.73703 30.3597H40.5144C44.9881 30.5039 45.8 27.896 45.7033 25.4485ZM40.6674 29.1913H5.68131C3.18939 29.1726 1.8415 27.9779 1.83629 25.8135V5.52933C1.72785 2.27317 4.24932 1.94813 5.83503 1.7866H40.6002C43.6938 1.63114 44.5726 3.55479 44.4954 5.33535V25.5472C44.3143 27.853 42.7657 29.1388 40.6674 29.1913Z" fill="#00FF00"/>
<path d="M45.7033 25.4485V5.27057C45.7843 1.00072 44.0423 0.541776 40.6585 0.617647H5.82608C1.799 0.526961 0.425041 1.93008 0.628372 5.53117V25.834C0.361326 29.539 2.09112 30.2998 5.73703 30.3597H40.5144C44.9881 30.5039 45.8 27.896 45.7033 25.4485ZM40.6674 29.1913H5.68131C3.18939 29.1726 1.8415 27.9779 1.83629 25.8135V5.52933C1.72785 2.27317 4.24932 1.94813 5.83503 1.7866H40.6002C43.6938 1.63114 44.5726 3.55479 44.4954 5.33535V25.5472C44.3143 27.853 42.7657 29.1388 40.6674 29.1913Z" fill="#00FF00"/>
<path d="M8.92157 9.44425C8.12355 9.57715 7.2316 10.3904 7.86794 10.8775L7.8506 10.9057L22.7546 19.2297C23.0363 19.3732 23.2483 19.4005 23.558 19.2297L38.462 10.9057L38.4447 10.8775C39.0544 10.1575 37.9082 9.13945 37.182 9.49477C37.1568 9.50893 37.1333 9.52594 37.1117 9.54575L23.1563 17.3408L9.20091 9.54575C9.17936 9.52597 9.15589 9.50893 9.13061 9.49477C9.06988 9.46089 8.84379 9.44425 8.92156 9.44425H8.92157Z" fill="#00FF00"/>
</svg>
