<svg width="81" height="90" viewBox="0 0 81 90" fill="none" xmlns="http://www.w3.org/2000/svg">
<ellipse cx="40.5108" cy="44.8772" rx="27.4115" ry="27.1689" fill="white"/>
<path fill-rule="evenodd" clip-rule="evenodd" d="M38.5701 0.100024C38.1032 0.203363 36.957 0.704289 36.0231 1.21346C35.0891 1.72264 33.7792 2.49064 33.1121 2.92001C32.445 3.34962 31.2294 4.03782 30.411 4.44923C29.5925 4.86065 28.7738 5.33998 28.5916 5.51464C28.4095 5.68906 27.7147 6.11406 27.0476 6.459C26.3805 6.80371 25.3981 7.3318 24.8644 7.63236C24.3307 7.93267 23.7219 8.33123 23.5111 8.51778C23.3005 8.70456 23.0601 8.85714 22.9771 8.85714C22.8939 8.85714 21.5129 9.62127 19.9085 10.5552C18.3038 11.4891 16.9153 12.2533 16.8229 12.2533C16.7305 12.2533 16.4826 12.401 16.272 12.5812C16.0612 12.7617 15.0157 13.3742 13.9483 13.9421C12.881 14.5102 11.8439 15.1091 11.6438 15.2731C11.4437 15.4371 10.5158 15.9909 9.5819 16.5042C8.64796 17.0173 7.7395 17.5805 7.56339 17.7562C7.38704 17.9316 7.15101 18.0752 7.03869 18.0752C6.92662 18.0752 6.03393 18.5288 5.05488 19.0831C4.07583 19.6376 2.9243 20.419 2.49591 20.8197C2.06751 21.2205 1.77375 21.6401 1.84313 21.7522C1.9125 21.8645 1.86859 21.9564 1.74561 21.9564C1.62238 21.9564 1.23401 22.5978 0.882265 23.3816L0.242584 24.8067V44.821V64.8353L0.866256 66.5016C1.20926 67.418 1.83463 68.5264 2.256 68.9645C2.67736 69.4026 3.62463 70.108 4.36134 70.532C5.09781 70.9563 5.91894 71.4254 6.18578 71.5749C6.45262 71.7243 7.87171 72.5369 9.33932 73.3806C10.8069 74.2246 12.9901 75.484 14.1909 76.1798C15.3917 76.8755 17.4657 78.0728 18.7999 78.8409C20.1341 79.6089 21.7169 80.5142 22.3173 80.8526C22.9177 81.1912 24.9372 82.3595 26.805 83.4489C28.6729 84.5381 31.9996 86.4579 34.1979 87.7147L38.1944 90H40.2624C41.8775 90 42.5426 89.8904 43.3004 89.4988C43.8341 89.223 46.8906 87.4866 50.0927 85.6401C53.2947 83.7936 56.897 81.7186 58.0978 81.0289C59.2986 80.3395 62.1367 78.7043 64.4049 77.3956C66.673 76.0866 70.3299 73.9771 72.5313 72.7077C74.7327 71.4383 76.9487 70.1383 77.4559 69.8188C77.9629 69.4994 78.8034 68.5793 79.3237 67.7741C79.8526 66.9562 80.3339 65.8641 80.4149 65.2986C80.4949 64.7419 80.5274 55.1716 80.4876 44.0312C80.4219 25.6446 80.3778 23.7076 80.0098 23.0362C79.7866 22.6296 79.1501 21.8288 78.595 21.2571C78.0403 20.6851 76.6158 19.6262 75.4299 18.9036C74.2439 18.1812 73.2054 17.59 73.1217 17.59C73.0383 17.59 72.6788 17.3826 72.3227 17.1291C71.9666 16.8756 70.6945 16.1314 69.4956 15.4757C68.2968 14.8197 66.2242 13.6474 64.89 12.8701C63.5558 12.0929 62.0822 11.2427 61.6152 10.9804C61.1482 10.718 60.657 10.4206 60.5236 10.3192C60.3902 10.2178 59.7352 9.83207 59.0681 9.46189C58.401 9.09172 57.4186 8.55028 56.8849 8.25846C56.3512 7.96688 54.4591 6.89055 52.68 5.86687C50.9009 4.84318 49.3814 4.00555 49.3031 4.00555C49.2247 4.00555 48.9882 3.85297 48.7777 3.66619C48.5669 3.47964 47.958 3.08108 47.4243 2.78077C46.8906 2.48021 45.9082 1.95309 45.2411 1.6096C44.574 1.2661 43.9736 0.916789 43.9069 0.833584C43.8402 0.750136 43.5639 0.565533 43.2929 0.423139C43.022 0.280745 42.0395 0.107543 41.1097 0.0381657C40.1799 -0.031212 39.0371 -0.00331511 38.5701 0.100024ZM45.3624 18.4417C46.4964 18.6525 47.9701 18.9979 48.6372 19.209C49.3043 19.42 50.9274 20.1298 52.2439 20.7862C53.5606 21.4427 55.4163 22.5578 56.3677 23.2642C57.3194 23.9706 58.8758 25.3705 59.8264 26.3753C60.7773 27.3798 62.0055 28.8646 62.5554 29.6748C63.1056 30.485 63.5549 31.2356 63.5537 31.3431C63.5522 31.4505 61.5056 32.7119 59.0053 34.1463C56.5048 35.5807 53.9029 37.0808 53.2232 37.4801L51.9872 38.2059L50.8578 36.7514C50.2365 35.9513 49.0816 34.8209 48.2913 34.2392C47.501 33.6573 46.1095 32.8791 45.1989 32.5096C43.9321 31.9958 43.0014 31.81 41.2376 31.7193C39.8944 31.6502 38.3487 31.7215 37.5351 31.8906C36.7668 32.0499 35.3666 32.5664 34.4237 33.0382C33.4808 33.51 32.0222 34.5386 31.1824 35.3243C30.1851 36.257 29.3458 37.3418 28.7631 38.4506C28.2724 39.3846 27.6968 40.7219 27.4838 41.4227C27.2524 42.1844 27.0966 43.5754 27.0966 44.8802C27.0966 46.1457 27.2524 47.5733 27.4668 48.2763C27.6706 48.9434 28.1822 50.2184 28.604 51.1096C29.0574 52.0671 29.9006 53.2679 30.6657 54.0453C31.3774 54.7687 32.6012 55.7492 33.385 56.2242C34.1688 56.6992 35.5197 57.3294 36.3869 57.6246C37.5712 58.0278 38.5393 58.1631 40.2765 58.168C41.8595 58.1726 43.0074 58.0375 43.9151 57.7401C44.6443 57.5011 45.8861 56.983 46.6745 56.5885C47.5075 56.1718 48.7842 55.1954 49.7225 54.2571C50.6106 53.3693 51.4938 52.3975 51.6852 52.0974C52.0328 51.5528 52.0396 51.556 57.7339 54.8551C60.8693 56.6715 63.47 58.1896 63.5134 58.2284C63.5568 58.2672 63.2866 58.7727 62.9132 59.352C62.5397 59.9313 61.6082 61.1694 60.8431 62.1034C60.078 63.0373 58.8828 64.2878 58.1868 64.8823C57.4909 65.4769 56.205 66.4438 55.329 67.0311C54.4533 67.6184 53.0259 68.4538 52.1573 68.8876C51.2886 69.3213 49.7045 69.9576 48.6372 70.3013C47.5698 70.6453 46.0416 71.0679 45.2411 71.2406C44.3996 71.422 42.2506 71.5506 40.1469 71.5453C37.269 71.538 36.0738 71.4281 34.4298 71.0194C33.2868 70.7351 31.4856 70.1611 30.4272 69.7441C29.3689 69.3271 27.739 68.539 26.805 67.9929C25.8711 67.4469 24.452 66.48 23.6515 65.8442C22.851 65.2084 21.6328 64.1066 20.9443 63.3958C20.2559 62.6851 19.0665 61.2301 18.3009 60.1627C17.5356 59.0954 16.4326 57.2236 15.8499 56.0034C15.2672 54.7833 14.5761 52.9467 14.3141 51.922C14.0519 50.8976 13.7261 49.17 13.5898 48.0827C13.4535 46.9955 13.3419 45.4619 13.3419 44.6752C13.3419 43.8883 13.5134 42.0896 13.723 40.6782C13.9326 39.2667 14.3304 37.4514 14.6072 36.6444C14.8837 35.8373 15.5171 34.3037 16.0141 33.2364C16.5114 32.169 17.4715 30.5173 18.1481 29.5662C18.8247 28.6148 19.999 27.1658 20.7575 26.3466C21.5161 25.5272 23.0123 24.1971 24.0823 23.3908C25.1523 22.5845 27.076 21.4017 28.3571 20.762C29.6381 20.1225 31.2321 19.429 31.8992 19.2211C32.5663 19.013 34.04 18.6731 35.174 18.4657C36.3081 18.2581 37.618 18.041 38.085 17.983C38.552 17.9253 39.9165 17.9185 41.1172 17.9679C42.318 18.0177 44.2283 18.2307 45.3624 18.4417ZM59.7806 38.088C59.7224 38.5549 59.6268 39.3191 59.5686 39.786L59.4626 40.6351H60.7567H62.0511L62.2217 38.937L62.3922 37.2389H63.4906H64.5887L64.4216 38.937L64.2542 40.6351H65.2391H66.2242V41.7267V42.8183H65.1644C64.1281 42.8183 64.1012 42.8384 63.9542 43.728C63.8714 44.2284 63.8025 44.9379 63.8011 45.3047C63.7987 45.9218 63.8712 45.9718 64.7687 45.9718H65.7391V46.9421V47.9124H64.6758C63.778 47.9124 63.5896 47.9976 63.4661 48.4583C63.3858 48.7586 63.3169 49.3861 63.3133 49.8531C63.3096 50.32 63.2407 50.9476 63.1604 51.2479C63.0367 51.7091 62.8485 51.7937 61.948 51.7937H60.8816L61.0058 50.8234C61.0743 50.2897 61.1858 49.4164 61.2542 48.8828L61.3784 47.9124H60.0666H58.7547L58.583 49.8531L58.4112 51.7937H57.3196H56.228L56.3997 49.8531L56.5715 47.9124H55.5759H54.5804V46.9421V45.9718H55.6417C56.6363 45.9718 56.7124 45.9243 56.8546 45.2138C56.938 44.7968 57.0062 44.0872 57.0062 43.637C57.0062 42.8632 56.9599 42.8183 56.1572 42.8183C55.3127 42.8183 55.3081 42.8125 55.3081 41.7267V40.6351H56.2525C56.8898 40.6351 57.2446 40.5104 57.3441 40.2513C57.4251 40.0403 57.4914 39.4488 57.4914 38.937C57.4914 38.4252 57.5576 37.8338 57.6386 37.6227C57.7414 37.3544 58.1022 37.2389 58.8362 37.2389H59.8866L59.7806 38.088ZM59.1894 43.637C59.1894 44.0872 59.1212 44.7968 59.0378 45.2138L58.8862 45.9718H60.2507H61.6152V45.1531C61.6152 44.7029 61.6834 43.9933 61.7668 43.5763L61.9184 42.8183H60.5539H59.1894V43.637Z" fill="#2D0070"/>
<path fill-rule="evenodd" clip-rule="evenodd" d="M79.3596 22.1248L63.4555 31.4393C63.0197 31.777 61.1849 32.8959 59.0053 34.1463C56.5048 35.5807 53.9029 37.0808 53.2232 37.4801L51.9872 38.2059L51.9606 38.1716L40.5108 44.8773L79.517 67.4599C79.9654 66.6943 80.3439 65.7942 80.4149 65.2986C80.4949 64.7419 80.5274 55.1717 80.4877 44.0312C80.4408 30.9154 80.4049 26.17 80.2545 24.2833C80.0976 23.6455 79.8938 23.0526 79.6381 22.4822C79.5526 22.3678 79.4587 22.2473 79.3596 22.1248ZM59.4626 40.6351L59.5686 39.7861L59.7806 38.088L59.8866 37.239H58.8362C58.1022 37.239 57.7415 37.3544 57.6386 37.6227C57.5576 37.8338 57.4914 38.4252 57.4914 38.937C57.4914 39.4489 57.4251 40.0403 57.3441 40.2513C57.2447 40.5104 56.8898 40.6351 56.2525 40.6351H55.3081V41.7267C55.3081 42.8125 55.3128 42.8183 56.1572 42.8183C56.9599 42.8183 57.0062 42.8632 57.0062 43.637C57.0062 44.0872 56.938 44.7968 56.8546 45.2138C56.7124 45.9243 56.6363 45.9718 55.6417 45.9718H54.5804V46.9422V47.9125H55.576H56.5715L56.3998 49.8531L56.228 51.7937H57.3196H58.4112L58.583 49.8531L58.7547 47.9125H60.0666H61.3785L61.2542 48.8828L61.0059 50.8234L60.8817 51.7937H61.948C62.8485 51.7937 63.0367 51.7091 63.1604 51.2479C63.2407 50.9476 63.3096 50.3201 63.3133 49.8531C63.3169 49.3861 63.3858 48.7586 63.4661 48.4583C63.5896 47.9976 63.7781 47.9125 64.6758 47.9125H65.7391V46.9422V45.9718H64.7687C63.8712 45.9718 63.7987 45.9219 63.8011 45.3047C63.8025 44.938 63.8714 44.2284 63.9542 43.728C64.1012 42.8384 64.1281 42.8183 65.1644 42.8183H66.2242V41.7267V40.6351H65.2391H64.2542L64.4216 38.937L64.5887 37.239H63.4906H62.3922L62.2217 38.937L62.0511 40.6351H60.7567H59.4626ZM59.0378 45.2138C59.1213 44.7968 59.1894 44.0872 59.1894 43.637V42.8183H60.5539H61.9184L61.7668 43.5764C61.6834 43.9934 61.6152 44.7029 61.6152 45.1531V45.9718H60.2507H58.8862L59.0378 45.2138Z" fill="#390090"/>
<path d="M17.2231 58.3404L1.09161 67.1839C0.168113 66.513 0.0378966 64.9571 0 61.6045V27.2795C0.0404561 22.5806 1.32773 20.9468 4.7303 18.9105L35.9018 1.08093C39.6093 -0.644536 41.6178 -0.262824 45.1198 1.92995L75.0784 18.9105C77.1101 20.1839 78.3524 20.8966 79.0809 22.1853L63.5559 31.5353C47.7876 3.70431 0.569854 22.4083 17.2231 58.3404Z" fill="#9E73DA"/>
<path d="M51.8551 37.9642C43.3321 23.0354 20.2625 35.8756 28.8098 51.3057L40.6962 44.6491L51.8551 37.9642Z" fill="#996BD6"/>
</svg>
