<svg width="91" height="90" viewBox="0 0 91 90" fill="none" xmlns="http://www.w3.org/2000/svg">
<path fill-rule="evenodd" clip-rule="evenodd" d="M7.69149 0.0781213C6.30393 0.254979 4.651 0.917785 3.57785 1.7276C1.62011 3.20494 0.38023 5.35506 0.0815662 7.79065C-0.0271887 8.67779 -0.0271887 81.3108 0.0815662 82.198C0.451783 85.2169 2.27219 87.7784 4.98642 89.0996C5.82015 89.5055 6.83075 89.7993 7.80204 89.9184C8.68919 90.0272 81.3222 90.0272 82.2093 89.9184C84.1988 89.6745 86.0304 88.7902 87.4159 87.4045C88.8015 86.019 89.6859 84.1874 89.9298 82.198C90.0386 81.3108 90.0386 8.67779 89.9298 7.79065C89.6859 5.80118 88.8015 3.9696 87.4159 2.58406C86.0304 1.19845 84.1988 0.314082 82.2093 0.0701709C81.4049 -0.0284586 8.46665 -0.0206583 7.69149 0.0781213Z" fill="#F7DF1E"/>
<path fill-rule="evenodd" clip-rule="evenodd" d="M38.5342 36.3653C38.3998 36.4996 38.2897 43.6141 38.2897 52.1748C38.2897 68.7826 38.2452 69.2459 36.5556 70.1501C35.5193 70.7049 32.2474 70.5912 31.3602 69.9698C30.9348 69.6717 30.0988 68.7185 29.5023 67.8515L28.4176 66.2747L25.3758 67.9139C23.7027 68.8156 22.1807 69.6927 21.9942 69.8632C21.0371 70.7371 25.1258 75.2651 27.9754 76.4866C30.426 77.537 33.8466 77.9589 36.6664 77.5581C41.3403 76.8938 44.4705 74.5602 46.0819 70.539C46.8531 68.6139 46.8661 68.3229 46.8738 52.4498L46.8815 36.3172L42.83 36.219C40.6014 36.165 38.6685 36.2306 38.5342 36.3653ZM61.5443 36.8692C58.7343 37.7597 55.8997 40.2732 54.7582 42.886C54.1273 44.3302 53.9527 45.3648 53.9586 47.6198C53.9657 50.1544 54.1045 50.7853 55.1001 52.8079C56.5116 55.6753 58.581 57.4011 63.1883 59.5523C65.0206 60.4081 67.3376 61.4942 68.337 61.9659C69.3361 62.4376 70.6558 63.3951 71.2688 64.0933C72.2272 65.1854 72.3576 65.5554 72.1991 66.737C71.8583 69.2771 69.9267 70.5113 66.2912 70.5113C63.4958 70.5113 61.566 69.597 59.5878 67.3356L58.0922 65.6256L54.7687 67.5692C52.941 68.6381 51.3895 69.5682 51.3215 69.6366C51.2531 69.7047 51.6729 70.4513 52.2536 71.2958C55.5686 76.1145 60.9162 78.4734 67.7472 78.1308C76.3768 77.6976 81.1945 72.9038 80.6418 65.2994C80.2137 59.4019 77.2511 56.4296 67.6641 52.278C63.3693 50.4181 61.9627 49.0227 62.2467 46.904C62.6335 44.0191 65.459 42.772 68.5296 44.1303C69.4782 44.5497 70.3759 45.2715 70.761 45.9231C71.1155 46.5232 71.5237 47.0138 71.6682 47.0138C72.0315 47.0138 77.917 43.1971 77.917 42.961C77.917 42.2803 76.6318 40.5562 75.0923 39.172C71.8663 36.2716 66.3746 35.338 61.5443 36.8692Z" fill="black"/>
</svg>
