<svg width="121" height="90" viewBox="0 0 121 90" fill="none" xmlns="http://www.w3.org/2000/svg">
<path fill-rule="evenodd" clip-rule="evenodd" d="M50.929 0.0717046C50.6918 0.0993264 49.8834 0.191208 49.1324 0.276077C48.3814 0.360803 46.9552 0.586071 45.9631 0.776704C44.9708 0.967194 43.123 1.40843 41.8564 1.7572C40.5901 2.10613 38.362 2.84118 36.9054 3.39061C35.4486 3.94018 33.22 4.83896 31.9526 5.38796C30.6854 5.93696 28.5902 6.91389 27.2966 7.55878C26.0031 8.20381 24.1546 9.17243 23.189 9.71141C22.2233 10.2504 20.6217 11.2043 19.63 11.8311C18.6383 12.458 17.1794 13.428 16.388 13.9868C15.5967 14.5454 14.4427 15.4011 13.8235 15.888C13.2045 16.375 12.0189 17.3661 11.1889 18.0904C10.3589 18.8149 9.12916 19.979 8.4561 20.6775C7.78303 21.376 6.77566 22.4949 6.21758 23.1639C5.65949 23.833 4.80907 24.9279 4.32773 25.5969C3.84639 26.266 3.05907 27.52 2.57816 28.3837C2.09726 29.2474 1.50353 30.4711 1.25891 31.103C1.01414 31.7348 0.657847 32.8573 0.467124 33.5974C0.2764 34.3374 0.0796413 35.4704 0.0299123 36.1151C-0.03692 36.98 0.0049043 37.5806 0.18916 38.4053C0.326418 39.02 0.598343 39.9478 0.793379 40.4672C0.988414 40.9865 1.42275 41.9267 1.75864 42.5564C2.09453 43.1861 2.78168 44.281 3.28558 44.9894C3.79911 45.7112 5.15358 47.2275 6.36605 48.4378C7.55624 49.6261 9.30609 51.2066 10.2547 51.95C11.2033 52.6935 12.7878 53.8825 13.776 54.5922C14.7641 55.3019 16.4133 56.4559 17.4409 57.1564C18.4686 57.8571 19.8915 58.8452 20.6029 59.3522C21.3143 59.8591 22.2681 60.5702 22.7223 60.9325C23.1766 61.2947 23.5474 61.6555 23.5464 61.7342C23.5454 61.8129 22.6595 62.3281 21.5777 62.8792C20.4958 63.4302 18.6051 64.4824 17.376 65.2174C16.147 65.9523 14.4946 67.0097 13.7041 67.567C12.9136 68.1244 11.6847 69.0478 10.9733 69.6193C10.2619 70.1906 9.06061 71.2908 8.30375 72.064C7.54704 72.8373 6.619 73.9057 6.24143 74.4384C5.86387 74.9709 5.33022 75.937 5.05542 76.5851C4.78076 77.2332 4.42072 78.3108 4.25544 78.9799C4.04272 79.8411 3.95505 80.6563 3.95534 81.7707C3.95548 82.8226 4.03928 83.6537 4.20787 84.2753C4.3467 84.7869 4.69667 85.6884 4.98571 86.2786C5.32174 86.9648 5.80034 87.6397 6.31301 88.1502C6.75411 88.5894 7.40087 89.0861 7.75055 89.2538C8.10023 89.4217 8.96058 89.6581 9.66268 89.7794C10.3648 89.9008 11.7306 90 12.698 90C13.6654 90 15.0271 89.901 15.724 89.78C16.4209 89.659 17.4803 89.397 18.0784 89.198C18.6764 88.9989 19.7671 88.5531 20.5023 88.2072C21.2375 87.8614 22.4376 87.1627 23.1694 86.6548C23.9011 86.1467 24.9995 85.2664 25.61 84.6986C26.2206 84.1307 27.2141 83.0143 27.8178 82.2175C28.495 81.3238 29.2339 80.1111 29.747 79.0515C30.2043 78.1069 30.7361 76.7866 30.9287 76.1176C31.1213 75.4485 31.3912 74.257 31.5286 73.4699C31.6882 72.5559 31.7784 71.2888 31.7786 69.9635C31.7787 68.8221 31.7033 67.4375 31.611 66.8865C31.5187 66.3354 31.3399 65.466 31.2137 64.9544C31.0874 64.4427 30.8311 63.678 30.6443 63.255C30.4573 62.8319 30.3044 62.4691 30.3044 62.4488C30.3044 62.4286 31.3554 61.802 32.6399 61.0564C33.9245 60.3109 35.4154 59.4586 35.9531 59.1627C36.4907 58.8666 36.9614 58.6549 36.9991 58.6924C37.0368 58.7299 37.0013 58.9343 36.9202 59.1465C36.8391 59.3587 36.6148 60.1566 36.4216 60.9196C36.2283 61.6824 35.9585 63.0473 35.8218 63.9525C35.6852 64.8578 35.5695 66.4678 35.5647 67.5305C35.5601 68.5931 35.6428 69.9456 35.7487 70.536C35.8545 71.1263 36.1342 72.2212 36.3702 72.969C36.6063 73.7168 37.0826 74.9082 37.4287 75.6166C37.7749 76.3251 38.3487 77.2347 38.704 77.6382C39.0603 78.0428 39.658 78.5184 40.0372 78.6988C40.5705 78.9529 40.982 79.0276 41.8743 79.0326C42.8431 79.038 43.1386 78.9798 43.7518 78.6628C44.152 78.4558 44.7212 78.0203 45.0164 77.6949C45.3117 77.3694 45.7885 76.7371 46.0758 76.2897C46.3631 75.8425 47.0681 74.4976 47.6423 73.3013C48.2164 72.105 48.9588 70.4621 49.2919 69.6504C49.6251 68.8386 49.9403 68.1249 49.9925 68.064C50.0446 68.0033 50.0287 68.422 49.9571 68.9943C49.8855 69.5668 49.8569 70.9045 49.8936 71.9671C49.9436 73.4178 50.0383 74.1422 50.2734 74.8743C50.4754 75.5026 50.7755 76.0576 51.1172 76.4347C51.4089 76.7566 51.8557 77.1068 52.1101 77.2128C52.3645 77.3189 52.852 77.4056 53.1935 77.4056C53.5351 77.4056 54.0461 77.2881 54.3291 77.1444C54.6119 77.0007 55.1434 76.6385 55.5101 76.3394C55.8766 76.0403 56.5203 75.3367 56.9406 74.7758C57.3607 74.215 58.0306 73.1765 58.429 72.4681C58.8274 71.7596 59.5756 70.4072 60.0918 69.4626C60.6077 68.518 61.7741 66.2639 62.6837 64.4535C63.5932 62.643 64.8366 60.0347 65.4468 58.6572C66.0572 57.2797 66.9423 55.2188 67.414 54.0774C67.8855 52.936 68.3366 51.8412 68.4162 51.6444C68.5401 51.3384 68.6618 51.6856 69.2567 54.0399C69.8744 56.4851 70.0828 57.066 71.1182 59.2296L72.2843 61.6661L71.6 62.6304C71.2236 63.1608 70.4933 64.114 69.977 64.7487C69.4608 65.3834 68.0199 67.1149 66.7753 68.5966C65.5306 70.0781 64.3171 71.5837 64.0786 71.9424C63.8401 72.3009 63.5772 72.8449 63.4943 73.1514C63.4115 73.4579 63.3844 73.8934 63.4342 74.1192C63.4841 74.345 63.6504 74.6888 63.8039 74.883C63.9574 75.0774 64.3735 75.3469 64.7286 75.482C65.2584 75.6833 65.6775 75.7134 67.0626 75.6488C68.054 75.6026 69.1663 75.4553 69.757 75.2922C70.3103 75.1392 71.341 74.7795 72.0475 74.4929C72.754 74.2062 73.7888 73.7032 74.3472 73.3748C74.9054 73.0465 75.8502 72.2896 76.4465 71.6928C77.1702 70.9685 77.7105 70.2628 78.0708 69.5709C78.3677 69.0009 78.7033 68.0992 78.8164 67.5673C78.9297 67.0354 79.0234 66.1628 79.0248 65.6282C79.0261 65.0935 78.9248 64.1596 78.7996 63.553C78.6744 62.9463 78.362 61.8911 78.105 61.2081L77.638 59.9666L79.0317 57.8414C79.7982 56.6726 81.0482 54.6389 81.8094 53.322C82.5707 52.0052 83.5587 50.2035 84.0052 49.3183C84.659 48.0219 84.838 47.7643 84.925 47.9949C84.9846 48.1523 85.2936 49.3555 85.6118 50.6685C86.0925 52.6522 86.3577 53.4098 87.1804 55.1489L88.1704 57.2422L86.2821 59.1303C85.0065 60.4059 84.1034 61.4597 83.4986 62.3782C83.0062 63.126 82.4145 64.1307 82.1838 64.6107C81.9529 65.0909 81.6339 66.0247 81.4746 66.686C81.3154 67.3473 81.185 68.2103 81.185 68.6039C81.1849 68.9974 81.2516 69.559 81.3332 69.8517C81.4148 70.1444 81.6543 70.5883 81.8654 70.8381C82.0766 71.088 82.5106 71.4106 82.8301 71.555C83.1495 71.6995 83.7229 71.8192 84.1042 71.8209C84.4855 71.8226 85.294 71.6603 85.9008 71.4604C86.5076 71.2603 87.7248 70.7475 88.6057 70.3207C89.5381 69.8692 90.6618 69.1808 91.295 68.6736C91.8933 68.1944 92.7457 67.4031 93.1894 66.9151C93.6522 66.406 94.2518 65.5134 94.5962 64.8211L95.1964 63.6143L95.1865 61.7441C95.1776 60.0563 95.1337 59.7456 94.7382 58.5611L94.2998 57.2486L95.0356 56.942C95.4401 56.7735 96.4179 56.4788 97.2084 56.2871C97.9987 56.0955 99.509 55.8627 100.564 55.7696C102.047 55.6388 102.978 55.6394 104.661 55.7721C105.858 55.8665 107.42 56.0663 108.132 56.216C108.843 56.3659 109.91 56.6615 110.503 56.8729C111.096 57.0844 112.079 57.5132 112.687 57.8261C113.295 58.1388 114.233 58.7618 114.771 59.2103C115.309 59.6589 116.088 60.4736 116.502 61.0209C116.916 61.5681 117.416 62.418 117.614 62.9098C117.812 63.4014 118.044 64.2548 118.13 64.806C118.246 65.5537 118.242 66.0179 118.114 66.6336C118.02 67.0875 117.759 67.8223 117.534 68.2664C117.31 68.7106 116.816 69.39 116.438 69.7763C116.059 70.1627 115.341 70.7542 114.842 71.091C114.134 71.5691 113.945 71.7712 113.98 72.0141C114.013 72.2445 114.139 72.3361 114.468 72.368C114.711 72.3916 115.252 72.277 115.67 72.1133C116.087 71.9494 116.718 71.6172 117.071 71.3752C117.425 71.1331 118.064 70.5863 118.492 70.1603C118.94 69.7143 119.484 68.9615 119.775 68.3856C120.053 67.8355 120.384 66.9511 120.51 66.4203C120.676 65.7196 120.716 65.0916 120.655 64.1274C120.596 63.2005 120.437 62.402 120.128 61.4828C119.884 60.7584 119.486 59.8203 119.244 59.3978C119.001 58.9753 118.426 58.1583 117.966 57.5821C117.506 57.0059 116.607 56.1134 115.967 55.5989C115.327 55.0844 114.337 54.4099 113.767 54.1002C113.197 53.7903 112.149 53.3083 111.437 53.0288C110.726 52.7493 109.497 52.3843 108.707 52.2179C107.71 52.0079 106.498 51.8906 104.754 51.835C102.834 51.7739 101.838 51.8111 100.543 51.9919C99.61 52.1223 98.2518 52.3827 97.5246 52.5709C96.7975 52.7591 95.5557 53.1809 94.7652 53.5082C93.9747 53.8357 93.2272 54.1341 93.104 54.1714C92.9353 54.2228 92.6299 53.7179 91.8625 52.119C91.3029 50.9527 90.7748 49.7731 90.689 49.4976C90.6032 49.2221 90.4322 48.2239 90.3087 47.2793C90.185 46.3306 90.123 45.2095 90.1705 44.7747C90.2177 44.3418 90.3232 43.6334 90.4047 43.2004C90.4862 42.7675 90.8109 41.6181 91.1261 40.6464C91.4943 39.5113 91.6674 38.7526 91.61 38.5249C91.5483 38.2802 91.3111 38.0752 90.8434 37.8626C90.2731 37.6032 89.9159 37.5567 88.585 37.5677C87.7155 37.575 86.619 37.6612 86.1484 37.7592C85.6779 37.8573 85.0823 38.0373 84.825 38.1595C84.5233 38.3028 84.283 38.5669 84.1478 38.9032C84.0325 39.19 83.7352 40.2466 83.4871 41.251C83.1857 42.4707 82.7562 43.6853 82.1941 44.9074C81.731 45.9138 80.7727 47.7931 80.0641 49.0834C79.3557 50.3739 78.2841 52.2818 77.683 53.3235C77.082 54.3649 76.4431 55.4429 76.2636 55.7188C76.0841 55.9949 75.8969 56.2215 75.8478 56.2225C75.7988 56.2233 75.4675 55.5641 75.1119 54.7572C74.7563 53.9505 74.4209 53.1627 74.3667 53.0069C74.3124 52.851 74.1758 52.0782 74.0631 51.2895C73.9506 50.5007 73.8572 49.4586 73.8558 48.9735C73.8543 48.4885 73.945 47.6191 74.0573 47.0414C74.1694 46.4638 74.5268 45.1614 74.8516 44.1473C75.4104 42.402 75.4297 42.2846 75.2112 41.9527C75.0845 41.76 74.7431 41.4978 74.4528 41.3701C74.0657 41.1998 73.5035 41.14 72.344 41.1455C71.4745 41.1498 70.375 41.235 69.9007 41.3348C69.4264 41.4345 68.7959 41.6389 68.4994 41.7887C68.203 41.9387 67.9604 42.0906 67.9604 42.1263C67.9604 42.162 67.7681 42.939 67.5331 43.8529C67.298 44.7669 66.7419 46.3625 66.2974 47.3988C65.8527 48.4351 65.0323 50.3134 64.4741 51.5728C63.916 52.8323 62.7215 55.505 61.8199 57.5122C60.9183 59.5195 59.7615 62.0956 59.2492 63.2369C58.737 64.3783 57.7539 66.407 57.0646 67.7452C56.2939 69.2413 55.7291 70.1782 55.5979 70.1782C55.4296 70.1782 55.3755 69.9258 55.3425 68.9833C55.3186 68.3043 55.4004 67.254 55.5318 66.5503C55.659 65.8693 56.1472 63.7832 56.6166 61.9144C57.086 60.0457 57.696 57.6956 57.9722 56.692C58.2485 55.6885 58.4746 54.6167 58.4746 54.3104C58.4746 53.8621 58.379 53.6636 57.9852 53.2938C57.716 53.0409 57.205 52.7531 56.8499 52.6541C56.4946 52.5551 56.0065 52.5173 55.765 52.5699C55.5236 52.6228 55.1579 52.7976 54.9524 52.9586C54.747 53.1197 54.5503 53.223 54.5155 53.1882C54.4806 53.1534 54.5201 52.5853 54.6032 51.9256C54.6862 51.2659 54.7102 50.3048 54.6566 49.7899C54.603 49.2749 54.4619 48.5638 54.3432 48.2096C54.2243 47.8553 53.9335 47.2853 53.697 46.943C53.4043 46.5193 53.031 46.2111 52.5291 45.9784C51.957 45.7132 51.5491 45.6363 50.7134 45.6367C49.8997 45.6372 49.3463 45.7375 48.4556 46.0462C47.8067 46.2712 46.7902 46.7565 46.197 47.1247C45.6035 47.4931 44.7814 48.0463 44.3699 48.3541C43.9584 48.662 43.1428 49.3767 42.5574 49.9424C41.972 50.5082 41.1475 51.3962 40.725 51.9159C39.9841 52.8277 39.8339 52.9279 36.4601 54.7622C34.5369 55.8078 31.8638 57.2664 30.52 58.0031L28.0766 59.3427L26.7831 58.1026C26.0717 57.4206 24.9398 56.4079 24.2679 55.8524C23.596 55.2966 22.0114 54.0482 20.7466 53.0779C19.4818 52.1077 17.7679 50.7644 16.9379 50.093C16.1079 49.4215 14.6819 48.1246 13.7689 47.2109C12.8195 46.2606 11.7585 45.0248 11.2898 44.3233C10.8391 43.649 10.2813 42.6819 10.0503 42.1744C9.81919 41.6669 9.52772 40.8585 9.40253 40.3776C9.27749 39.8967 9.13492 39.0306 9.08591 38.4528C9.0369 37.8749 9.07297 36.8317 9.1661 36.1344C9.25938 35.4373 9.50156 34.3429 9.7045 33.7024C9.90744 33.0621 10.3825 31.9263 10.7602 31.1785C11.1377 30.4307 11.8562 29.2393 12.3567 28.5308C12.8918 27.7732 14.1851 26.3284 15.4975 25.0223C16.783 23.7428 18.4592 22.2536 19.4531 21.5081C20.4017 20.7965 21.7922 19.7912 22.5432 19.2741C23.2942 18.757 24.9883 17.6912 26.3079 16.9055C27.6275 16.1199 30.1822 14.7324 31.9851 13.8223C33.7878 12.9121 36.2808 11.7457 37.525 11.2305C38.7691 10.7151 40.8064 9.97375 42.0523 9.58289C43.2982 9.19204 44.8027 8.74193 45.3955 8.58278C45.9884 8.42364 47.1202 8.16689 47.9107 8.01246C48.7012 7.85789 50.1888 7.61989 51.2164 7.4835C52.4433 7.32063 54.0471 7.23519 55.8875 7.23476C57.8261 7.23433 59.1692 7.30918 60.2439 7.47777C61.0985 7.61187 62.3597 7.88351 63.0466 8.08159C63.7335 8.27966 64.8755 8.74336 65.5844 9.11204C66.424 9.54869 67.1505 10.0613 67.6684 10.5823C68.1057 11.0224 68.6069 11.6694 68.7824 12.0202C68.9577 12.3711 69.2084 13.0737 69.3395 13.5818C69.5191 14.2783 69.5579 14.8571 69.4971 15.9365C69.4527 16.7236 69.2811 17.8507 69.1157 18.441C68.9504 19.0314 68.431 20.2873 67.9616 21.2318C67.4923 22.1764 66.6482 23.5611 66.0861 24.3089C65.524 25.0567 64.5353 26.205 63.8893 26.8608C63.2431 27.5164 62.1555 28.5231 61.4724 29.0979C60.7892 29.6725 59.4957 30.6264 58.5979 31.2177C57.7 31.8091 56.2863 32.6504 55.4563 33.0872C54.6263 33.5238 53.0417 34.2351 51.935 34.6676C50.8284 35.1001 49.3408 35.6221 48.6294 35.8276C47.9179 36.033 46.398 36.3893 45.2518 36.6194C44.1056 36.8494 42.5219 37.1131 41.7324 37.2051C40.8794 37.3046 39.5088 37.338 38.3549 37.2875C37.1812 37.2363 35.9534 37.09 35.2517 36.918C34.6133 36.7613 33.6516 36.4685 33.1146 36.2672C32.5778 36.066 31.7501 35.6664 31.2754 35.3793C30.8007 35.0921 30.0807 34.5283 29.6756 34.1263C29.2704 33.7245 28.8299 33.3108 28.6967 33.2074C28.5134 33.0651 28.382 33.0577 28.1577 33.1773C27.9397 33.2935 27.861 33.4763 27.8612 33.867C27.8612 34.1594 28.0475 34.7905 28.275 35.2694C28.5056 35.755 29.0872 36.5643 29.5893 37.099C30.0848 37.6264 31.0154 38.4058 31.6573 38.8312C32.299 39.2564 33.3278 39.8051 33.9432 40.0506C34.5586 40.2959 35.5377 40.6177 36.1188 40.7657C36.6999 40.9137 37.7935 41.1035 38.5489 41.1873C39.3045 41.2712 40.8795 41.3399 42.0492 41.3399C43.2187 41.3399 44.9836 41.2454 45.9713 41.1299C46.959 41.0143 48.3168 40.8168 48.9887 40.6907C49.6606 40.5648 51.093 40.2415 52.1718 39.9724C53.2506 39.7034 54.8998 39.2162 55.8368 38.89C56.7737 38.5638 58.1548 38.0289 58.9057 37.7013C59.6567 37.3735 60.9179 36.7285 61.7084 36.2678C62.4989 35.8071 63.8877 34.8776 64.7947 34.2022C65.7018 33.5268 67.1616 32.2644 68.0388 31.3966C68.9159 30.5289 69.9924 29.3681 70.4308 28.8171C70.8691 28.2661 71.628 27.2197 72.1171 26.492C72.6064 25.7642 73.3869 24.3796 73.8517 23.415C74.3165 22.4503 74.8651 21.146 75.071 20.5162C75.2766 19.8865 75.5796 18.5985 75.7443 17.6539C75.9871 16.2619 76.0285 15.5838 75.9632 14.0759C75.9119 12.8936 75.7733 11.7979 75.5832 11.0705C75.4185 10.4407 75.0904 9.51377 74.8539 9.01056C74.6174 8.50722 74.141 7.70218 73.7952 7.22159C73.4494 6.74086 72.7228 5.92251 72.1805 5.40313C71.6381 4.88376 70.7281 4.16144 70.1586 3.79807C69.5888 3.43469 68.6513 2.90086 68.0748 2.61176C67.4985 2.32281 66.1831 1.80987 65.1517 1.47183C64.1205 1.13393 62.568 0.724609 61.702 0.56217C60.836 0.399874 59.5453 0.202658 58.8339 0.124086C58.1224 0.0455142 56.1498 -0.00972908 54.4502 0.00143412C52.7507 0.0125973 51.1661 0.044226 50.929 0.0717046ZM51.1125 50.4361C51.3574 50.6068 51.4313 50.7989 51.4288 51.259C51.4271 51.589 51.3008 52.4221 51.148 53.1102C50.9952 53.7983 50.4216 55.6982 49.8736 57.3322C49.3254 58.9662 48.3594 61.6233 47.7271 63.2369C47.0945 64.8506 46.2381 66.9437 45.8237 67.8883C45.4093 68.8329 44.8454 69.9599 44.5703 70.3928C44.2953 70.8258 43.9369 71.325 43.7736 71.502C43.6105 71.679 43.3312 71.824 43.1531 71.824C42.9751 71.824 42.7027 71.6636 42.5478 71.4677C42.393 71.2716 42.1458 70.6758 41.9984 70.1438C41.782 69.3624 41.7313 68.681 41.7346 66.6002C41.7376 64.6537 41.8028 63.7268 42.0018 62.8076C42.1465 62.1385 42.4812 60.932 42.7455 60.1266C43.0098 59.3211 43.6214 57.8901 44.1045 56.9466C44.5875 56.0031 45.3036 54.7416 45.6959 54.1432C46.0882 53.545 46.7026 52.743 47.0613 52.361C47.4201 51.979 48.0562 51.4317 48.4747 51.1446C48.8934 50.8575 49.4874 50.5334 49.795 50.4242C50.1024 50.3151 50.4528 50.2229 50.5735 50.2195C50.6944 50.2161 50.9369 50.3135 51.1125 50.4361ZM90.099 60.3948C90.2032 60.8274 90.244 61.5499 90.1979 62.148C90.1548 62.7076 89.9833 63.5263 89.8169 63.9676C89.6503 64.4088 89.3144 65.0701 89.0704 65.4371C88.8262 65.8041 88.2158 66.407 87.7139 66.777C87.2119 67.1468 86.472 67.5942 86.0697 67.7711L85.3381 68.0925L85.2229 67.7822C85.1593 67.6116 85.1659 67.2113 85.2374 66.8929C85.3087 66.5745 85.5862 65.7779 85.854 65.1228C86.1216 64.4676 86.637 63.4581 86.9992 62.8794C87.3613 62.301 88.1152 61.3396 88.6746 60.7433C89.2338 60.1469 89.7432 59.659 89.8065 59.659C89.8699 59.659 90.0016 59.9902 90.099 60.3948ZM26.8386 65.1779C26.9944 65.7853 27.0557 66.7628 27.0539 68.6039C27.0514 70.9698 27.0205 71.2793 26.6762 72.3965C26.4699 73.0656 26.0984 74.0627 25.8505 74.6124C25.6025 75.162 25.0538 76.128 24.6311 76.7592C24.2083 77.3902 23.4847 78.321 23.0231 78.8275C22.5616 79.3341 21.7142 80.1204 21.14 80.5748C20.5658 81.0292 19.6927 81.6253 19.1997 81.8994C18.7067 82.1734 17.69 82.6019 16.9404 82.8517C15.9574 83.179 15.2963 83.3088 14.5689 83.3168C14.0142 83.3231 13.3285 83.25 13.0451 83.1544C12.7617 83.0588 12.361 82.805 12.1544 82.5904C11.9479 82.3757 11.6786 81.9606 11.5558 81.668C11.4331 81.3753 11.3336 80.7312 11.3348 80.2368C11.3359 79.7423 11.4345 78.9252 11.5538 78.421C11.6732 77.9168 12.0267 76.9609 12.3393 76.2966C12.6517 75.6324 13.1921 74.6925 13.54 74.2078C13.8879 73.7232 14.5199 72.9721 14.9443 72.5386C15.3689 72.1051 16.1366 71.391 16.6505 70.9517C17.1643 70.5125 18.2314 69.6678 19.0219 69.0747C19.8124 68.4816 21.203 67.516 22.112 66.929C23.0211 66.3419 24.347 65.5011 25.0584 65.0606C25.7698 64.62 26.4124 64.275 26.4863 64.2937C26.5602 64.3126 26.7187 64.7105 26.8386 65.1779ZM73.9285 65.6342C73.873 66.0081 73.7083 66.6537 73.5626 67.0689C73.4168 67.4841 73.0714 68.1282 72.7951 68.5001C72.5187 68.8721 71.9484 69.5037 71.5278 69.9035C71.1071 70.3035 70.4933 70.8362 70.1637 71.0872C69.834 71.3384 69.2611 71.6773 68.8908 71.8405C68.4546 72.0327 68.1681 72.0881 68.0776 71.9979C67.987 71.9078 68.5056 71.2361 69.5502 70.0906C70.437 69.1182 71.6605 67.7097 72.2693 66.9604C72.8781 66.2114 73.4667 65.4536 73.5774 65.2764C73.688 65.0992 73.8351 64.9544 73.904 64.9544C73.973 64.9544 73.9841 65.2602 73.9285 65.6342Z" fill="#CD6799"/>
</svg>
