<svg width="36" height="36" viewBox="0 0 36 36" fill="none" xmlns="http://www.w3.org/2000/svg">
<path d="M28.978 23.9485C29.4591 23.9485 29.9527 23.8881 30.4586 23.7671C30.9646 23.6461 31.4167 23.4496 31.8148 23.1775V19.7079C31.8148 19.4055 31.9807 19.2543 32.3125 19.2543H34.5272C34.6434 19.2543 34.7512 19.2846 34.8507 19.345C34.9502 19.4055 35 19.5265 35 19.7079V24.8556C35 25.0521 34.9171 25.2184 34.7512 25.3545C34.0046 25.8232 33.1379 26.2163 32.1508 26.5337C31.1637 26.8512 30.1061 27.0099 28.978 27.0099C27.6674 27.0099 26.4315 26.7832 25.2703 26.3296C24.109 25.8761 23.0929 25.2563 22.2219 24.4701C22.0864 24.3478 21.9555 24.2222 21.829 24.0933C21.9061 23.3176 21.9306 22.506 21.9331 21.663L21.9318 12.4649C22.0183 12.3795 22.1067 12.2955 22.1971 12.2131C23.0515 11.4345 24.0593 10.8222 25.2206 10.3762C26.3818 9.93024 27.6177 9.70728 28.9283 9.70728C30.0564 9.70728 31.0684 9.85465 31.9642 10.1495C32.8601 10.4443 33.7061 10.8638 34.5024 11.408C34.6351 11.4987 34.7098 11.597 34.7264 11.7028C34.743 11.8087 34.7098 11.9069 34.6268 11.9976L33.1586 13.9252C33.0757 14.0008 32.9762 14.0537 32.8601 14.084C32.7439 14.1142 32.6112 14.084 32.4619 13.9933C31.9808 13.6606 31.4541 13.3923 30.8817 13.1882C30.3094 12.9841 29.6748 12.8821 28.9781 12.8821C28.1154 12.8821 27.315 13.0219 26.5767 13.3016C25.8385 13.5813 25.1998 13.9668 24.6607 14.4581C24.1215 14.9495 23.6985 15.5239 23.3916 16.1816C23.0847 16.8392 22.9312 17.5536 22.9312 18.3246C22.9312 19.0956 23.0888 19.8251 23.404 20.5129C23.7192 21.2008 24.1464 21.8017 24.6855 22.3158C25.2247 22.8298 25.8634 23.2342 26.6016 23.529C27.3399 23.8238 28.132 23.9637 28.9781 23.9485H28.978Z" fill="url(#paint0_linear_56_46)"/>
<path d="M32.1795 23.5099V20.0403C32.1795 19.7379 32.3454 19.5867 32.6771 19.5867H34.1624C34.2785 19.5867 34.3863 19.617 34.4859 19.6774C34.5854 19.7379 34.6352 19.8589 34.6352 20.0403V24.8556C34.6352 25.0521 34.5522 25.2184 34.3863 25.3545C33.6398 25.8232 33.1378 26.2163 32.1507 26.5337C32.1507 26.5337 28.3799 26.0657 32.1795 23.5099Z" fill="url(#paint1_linear_56_46)"/>
<path d="M21.3826 4.00033C18.7841 3.97397 15.6514 5.53246 14.3482 7.65511C13.1303 9.6389 13.3746 11.178 13.3753 13.4571L13.3435 24.5153C13.3792 25.4192 13.0135 27.3224 12.7407 28.1587C12.4761 28.9697 11.8738 30.3765 11.2251 30.9118C11.3586 31.0406 11.6183 31.0968 11.8282 31.1646C12.6174 31.4193 13.3999 31.4383 14.2383 31.4156C15.3213 31.3862 16.2528 31.1503 17.0793 30.761C17.2989 30.6576 17.4628 30.5858 17.642 30.4717C20.9544 28.3623 21.3744 25.3052 21.3851 21.663L21.3826 4.00033Z" fill="url(#paint2_linear_56_46)"/>
<path d="M21.0179 4.33276C18.4679 4.68279 16.0162 5.8649 14.7131 7.98754C13.4951 9.97134 13.7394 11.5104 13.7401 13.7896L13.8291 21.248C17.2581 21.717 17.5349 21.7107 21.0204 21.6631L21.0179 4.33276Z" fill="url(#paint3_linear_56_46)"/>
<path fill-rule="evenodd" clip-rule="evenodd" d="M20.4989 27.274C16.3777 33.0873 8.54544 30.9741 8.49996 25.2969C8.54752 25.1842 8.53085 25.1732 8.46464 25.0706L1.00501 25.0662C0.673957 33.2663 16.8472 35.2479 20.4989 27.274Z" fill="#00FF00"/>
<path fill-rule="evenodd" clip-rule="evenodd" d="M20.4989 27.274C16.3777 33.0874 8.18067 31.3065 8.13519 25.6293C8.12821 25.5381 8.12247 25.5387 8.09986 25.403L1.36971 25.3986C1.21227 32.4928 16.8471 35.2479 20.4989 27.274Z" fill="url(#paint4_linear_56_46)"/>
<path d="M21.8289 24.0933C21.906 23.3176 21.9305 22.506 21.933 21.6631L21.9504 12.9258C22.0368 12.8403 22.1252 12.7563 22.2156 12.6739C23.07 11.8953 24.0592 11.1546 25.2205 10.7086C26.3817 10.2626 27.6176 10.0397 28.9282 10.0397C30.0563 10.0397 31.0683 10.1871 31.9641 10.4819C32.8599 10.7767 33.2003 10.9765 33.9966 11.5207C34.1293 11.6114 34.2039 11.7097 34.2205 11.8155C34.2371 11.9213 34.2039 12.0196 34.121 12.1103L33.0987 13.7569C33.0158 13.8325 32.9163 13.8854 32.8001 13.9157C32.684 13.9459 32.5513 13.9157 32.402 13.825C31.9209 13.4923 31.454 13.3923 30.8816 13.1882C30.3093 12.9841 29.6747 12.8821 28.978 12.8821C28.1153 12.8821 27.3149 13.0219 26.5766 13.3016C25.8384 13.5813 25.1997 13.9668 24.6606 14.4581C24.1214 14.9495 23.6984 15.524 23.3915 16.1816C23.0845 16.8392 22.9311 17.5536 22.9311 18.3246C22.9311 19.0956 23.0887 19.8251 23.4039 20.513C23.2418 21.9604 23.4128 22.6982 21.8289 24.0933H21.8289Z" fill="url(#paint5_linear_56_46)"/>
<defs>
<linearGradient id="paint0_linear_56_46" x1="21.829" y1="9.70728" x2="21.829" y2="27.0099" gradientUnits="userSpaceOnUse">
<stop stop-color="#00FF00"/>
<stop offset="1" stop-color="#009E00"/>
</linearGradient>
<linearGradient id="paint1_linear_56_46" x1="21.8289" y1="9.70727" x2="21.8289" y2="27.0099" gradientUnits="userSpaceOnUse">
<stop stop-color="#ADFF00"/>
<stop offset="1" stop-color="#ADFF00" stop-opacity="0"/>
</linearGradient>
<linearGradient id="paint2_linear_56_46" x1="11.2251" y1="4" x2="11.2251" y2="31.4227" gradientUnits="userSpaceOnUse">
<stop stop-color="#00FF00"/>
<stop offset="1" stop-color="#009E00"/>
</linearGradient>
<linearGradient id="paint3_linear_56_46" x1="19.0066" y1="4.58898" x2="18.2277" y2="21.4497" gradientUnits="userSpaceOnUse">
<stop stop-color="#ADFF00"/>
<stop offset="1" stop-color="#ADFF00" stop-opacity="0"/>
</linearGradient>
<linearGradient id="paint4_linear_56_46" x1="4.75111" y1="24.9483" x2="5.90949" y2="30.4123" gradientUnits="userSpaceOnUse">
<stop stop-color="#ADFF00"/>
<stop offset="1" stop-color="#ADFF00" stop-opacity="0"/>
</linearGradient>
<linearGradient id="paint5_linear_56_46" x1="21.8289" y1="9.70729" x2="22.0939" y2="19.3351" gradientUnits="userSpaceOnUse">
<stop stop-color="#ADFF00"/>
<stop offset="1" stop-color="#ADFF00" stop-opacity="0"/>
</linearGradient>
</defs>
</svg>
