<svg width="56" height="50" viewBox="0 0 56 50" fill="none" xmlns="http://www.w3.org/2000/svg">
<path fill-rule="evenodd" clip-rule="evenodd" d="M11.5864 15.6259C9.02489 16.3492 6.58502 17.4491 4.34671 18.8894C-1.50503 22.8093 -1.3925 27.4794 4.34671 31.193C6.60038 32.6095 9.03584 33.7136 11.5864 34.4752C10.9165 37.3943 10.6826 40.3965 10.8924 43.3842C11.6802 50.8864 16.7442 51.2803 22.1458 48.1669C23.415 47.416 24.6251 46.5695 25.7656 45.6348C26.0025 45.4552 26.2279 45.261 26.4408 45.0534C26.6659 44.8284 26.8159 44.7158 27.041 44.5095C27.2585 44.2794 27.5043 44.0777 27.7725 43.9093C28.0351 44.1344 29.648 45.5223 30.4357 46.1788C33.0428 48.0543 37.4504 50.9989 41.0139 49.611C44.5775 48.2231 44.9526 42.4089 44.5775 38.714C44.4087 37.2136 44.0898 35.8632 43.8835 34.4752C46.4048 33.6831 48.8177 32.5806 51.0669 31.193C59.5257 25.5663 54.3679 19.9397 47.7097 17.0138L45.8341 16.2636C45.1384 16.0972 44.4601 15.8648 43.8085 15.5696C44.2399 12.2311 44.9901 10.5244 44.5024 6.54821C44.1836 3.58482 43.077 1.2216 40.7513 0.377603C38.088 -0.710221 35.1246 0.790203 33.1365 1.87803C32.1061 2.45574 31.1273 3.12087 30.2107 3.86611C29.6855 4.29749 27.9788 5.7417 27.6037 6.11681C27.3573 5.97935 27.1406 5.79448 26.966 5.57288L24.9591 3.92238C24.0397 3.18103 23.0611 2.51612 22.0333 1.93429C20.1577 0.846467 16.9692 -0.597688 14.381 0.377603C12.0928 1.2216 11.0237 3.64109 10.6298 6.60447C10.4176 8.9151 10.5249 11.244 10.9487 13.5253C11.0612 14.2192 11.2675 14.9695 11.3238 15.6259H11.5864ZM36.1937 33.5562C37.7548 33.3421 39.3018 33.0353 40.8264 32.6372C40.4568 31.0887 39.9677 29.5712 39.3634 28.0984C38.9883 28.9611 38.2944 29.9739 37.863 30.8367C37.4316 31.6994 36.7564 32.5997 36.2688 33.5187L36.1937 33.5562ZM29.6105 7.9361L31.8612 10.4681C32.5551 11.3309 33.2491 12.1749 33.943 13.0939C34.637 14.0129 34.1493 13.6378 35.5373 13.7878L39.5697 14.4443C40.2166 14.6288 40.8743 14.7729 41.5391 14.8757C42.0599 12.5808 42.3116 10.233 42.2893 7.87984C42.1768 5.68543 41.6516 3.00341 39.7386 2.6283C36.9627 2.08438 32.7052 5.19777 30.6421 7.03581C30.2842 7.29157 29.9625 7.5944 29.6855 7.9361H29.6105ZM29.6105 42.1463L30.6233 43.0091C31.0359 43.3279 31.2985 43.5342 31.6736 43.8718C33.5492 45.3723 37.3003 47.8292 39.7573 47.3603C41.6328 47.0415 42.158 44.2469 42.2142 42.1463C42.2539 39.783 42.0211 37.4229 41.5203 35.1129C40.6575 35.2817 38.857 35.6944 37.5816 35.9195L34.5057 36.3508C34.1306 36.3508 34.0744 36.6696 33.868 36.9322C33.2192 37.8484 32.5244 38.731 31.7861 39.5768C31.4559 40.0231 31.0989 40.449 30.7171 40.8521C30.3185 41.2572 29.9487 41.6896 29.6105 42.1463ZM25.9907 42.1463L23.815 39.6143C23.0635 38.7863 22.368 37.9091 21.7332 36.9885C21.0955 36.182 21.3581 36.4071 20.1389 36.2383L16.1065 35.6006C15.5251 35.4881 14.7186 35.2255 14.1371 35.1692C13.5732 37.4703 13.3023 39.8335 13.3307 42.2025C13.4995 44.4532 13.9309 47.0415 15.8814 47.4166C19.3512 48.1105 24.5465 43.4404 25.9907 42.1463ZM27.7537 40.2707C28.9067 39.1696 29.9552 37.9641 30.8859 36.6697C29.9294 36.6697 28.7477 36.6697 27.7537 36.6697C26.7229 36.6144 25.6899 36.6144 24.659 36.6697L26.9472 39.3517C27.1945 39.6763 27.464 39.9834 27.7537 40.2707ZM12.2803 31.9432C12.6555 30.7616 13.0118 29.5238 13.4432 28.3985C13.612 27.9671 14.7749 25.1162 14.7749 25.0224C14.7749 24.9286 13.612 22.059 13.4432 21.6839C12.9516 20.5196 12.5625 19.3148 12.2803 18.0829C9.82336 18.5705 2.48992 21.834 2.48992 25.0224C2.48992 28.2109 9.76709 31.3993 12.2803 31.9432ZM14.7185 32.6372C16.239 33.0532 17.7871 33.3603 19.3512 33.5562C18.9761 32.7498 16.8004 29.5238 16.3128 28.1921C16.3128 28.3046 16.3128 28.1922 16.3128 28.361C16.3128 28.5298 16.3128 28.5297 16.2003 28.6235L15.6188 30.2928C15.3267 31.0283 15.0763 31.7797 14.8686 32.5434L14.7185 32.6372ZM24.659 16.001C22.3146 16.0948 22.7835 15.7197 21.5831 17.764C21.0017 18.7393 20.364 19.6396 19.7075 20.7274C19.0511 21.8153 18.601 22.753 18.0571 23.8971C17.5132 25.0412 17.4194 24.8537 17.7945 25.6039C18.5447 27.1606 22.052 33.7626 22.746 33.9876L26.1408 34.1377C27.735 34.1377 29.3292 34.1377 30.9234 34.1377C31.4673 34.1377 32.6864 34.1377 33.0052 33.8001C34.7997 31.1115 36.398 28.2971 37.788 25.3788C37.9568 25.0037 37.788 24.9474 37.6754 24.5723C37.5629 24.1972 37.1502 23.447 36.8877 22.9031C35.6503 20.5609 34.2659 18.2994 32.7427 16.1323C32.6302 16.1323 31.8424 16.1323 31.6173 16.0385C29.2813 15.8979 26.9389 15.8979 24.6028 16.0385L24.659 16.001ZM43.2646 31.9432C45.8716 31.3618 52.9987 28.1921 53.055 25.0224C53.055 22.5467 48.4224 20.071 46.3593 19.2082C45.3627 18.7431 44.3271 18.3665 43.2646 18.0829L42.1017 21.6277C41.9329 22.059 40.7701 24.9099 40.7701 25.0224C40.7701 25.1349 41.9329 27.9671 42.1017 28.3985C42.5734 29.5508 42.962 30.7354 43.2646 31.9432ZM39.3634 21.8528C39.983 20.4096 40.4787 18.9162 40.8451 17.3889C39.3375 16.9998 37.8097 16.693 36.2688 16.4699C36.2688 16.4699 38.8758 20.8775 39.3634 21.8528ZM14.7936 17.3889C15.15 18.7169 15.5757 20.0254 16.069 21.3088C16.1484 21.522 16.2556 21.7239 16.3878 21.909C17.0342 20.5238 17.7606 19.1773 18.5635 17.8765C18.8791 17.4361 19.1493 16.9648 19.37 16.4699C17.7757 16.6949 16.2753 17.1264 14.7936 17.3889ZM14.0996 14.9132L21.0767 13.6941C21.4331 13.6941 21.4893 13.469 21.7144 13.1502C22.3896 12.2311 24.584 9.39905 25.4655 8.59256C25.6843 8.39723 25.8795 8.1769 26.0469 7.9361C25.7844 7.61726 24.3402 6.49192 23.9838 6.17307C22.1083 4.67263 18.601 2.30945 15.994 2.68456C14.1184 2.94714 13.5557 5.62919 13.4432 7.78608C13.3837 10.1812 13.6167 12.5746 14.1371 14.9132H14.0996ZM24.7341 13.4128H30.9046C29.9703 12.1365 28.9554 10.9212 27.8662 9.77417C26.7204 10.8956 25.6726 12.1129 24.7341 13.4128Z" fill="#74CAEC"/>
<path fill-rule="evenodd" clip-rule="evenodd" d="M27.266 19.8084C25.9033 19.9718 24.6594 20.664 23.8023 21.7358C22.9451 22.8077 22.5434 24.1733 22.6836 25.5386C22.8238 26.9038 23.4948 28.1593 24.5519 29.0346C25.609 29.9098 26.9676 30.3347 28.335 30.2177C29.7071 30.0486 30.9571 29.3451 31.8139 28.2602C32.6706 27.1752 33.065 25.7962 32.9114 24.4223C32.7645 23.0696 32.0928 21.8285 31.0407 20.9658C29.9886 20.103 28.64 19.6874 27.2847 19.8084H27.266Z" fill="#74CAEC"/>
</svg>
